<svg xmlns="http://www.w3.org/2000/svg" enable-background="new 0 0 300 300" xml:space="preserve" viewBox="0 0 512 512" version="1.1" y="0px" x="0px"><path style="stroke-width:.44715" d="m481.36 25.852h3.1078c3.8316 0 6.9697-1.2706 6.9697-4.6304 0-2.527-1.8532-4.8663-6.7195-4.8663-1.5226 0-2.5591 0-3.3598 0.1108v9.3859zm0 16.323h-5.2112v-28.944c2.418-0.34491 4.852-0.81671 8.68-0.81671 4.6304 0 7.5184 0.9418 9.3698 2.3393 1.6173 1.2706 2.543 3.2168 2.543 6.0118 0 3.7047-2.4322 6.1208-5.54 6.9375v0.21981c2.527 0.47179 4.1425 2.779 4.7251 7.0787 0.6916 4.5196 1.2706 6.2316 1.7424 7.1734h-5.322c-0.69161-0.94181-1.2867-3.5939-1.8675-7.3932-0.56472-3.4992-2.527-4.8806-6.1226-4.8806h-2.9988v12.274zm4.7412-36.698c-11.459 0-20.72 9.6057-20.72 21.645 0 12.04 9.2608 21.645 20.829 21.645 11.457 0.1251 20.609-9.6057 20.609-21.645 0-12.04-9.1518-21.645-20.609-21.645zm0.10902-4.3945c14.33 0.0005 25.79 11.584 25.79 25.932 0 14.583-11.459 26.151-25.899 26.151-14.458 0-26.151-11.568-26.151-26.151 0-14.347 11.693-25.931 26.151-25.931z"/><g transform="matrix(.44715 0 0 .44715 64.841 .00018563)"><path d="m111.38 1040.5-9.7238-57.599c-2.7737-16.602-6.3187-42.548-9.0204-60.521h-1.0551c-2.8416 18.109-6.8103 44.79-9.7238 60.661l-10.463 57.46zm-45.21 37.532-12.637 63.922h-46.687l58.235-265.9h57.216l52.899 265.94h-46.928l-12.358-63.922z"/><path d="m281.45 1023.1c0-3.545 0-7.6895-0.7034-11.482-1.8584-13.129-8.8445-24.955-20.079-24.955-19.272 0-26.362 27.765-26.362 60.237 0 37.312 10.107 58.551 25.694 58.551 7.126 0 15.339-3.6529 19.799-19.312 1.0871-3.1214 1.6506-7.2978 1.6506-12.178zm47.916-154.21v217.85c0 17.265 0.87925 38.508 1.5827 55.11h-41.385l-2.7017-22.153h-0.98317c-6.9501 13.66-22.077 25.275-40.158 25.275-39.631 0-59.286-43.735-59.286-98.956 0-67.287 29.307-100.01 61.252-100.01 16.71 0 27.521 8.1811 32.964 20.015h0.80732v-97.13z"/><path d="m429.17 1108.3c18.289 0 22.817-34.471 22.817-63.011 0-27.133-4.5282-62.487-23.62-62.487-20.223 0-24.471 35.354-24.471 62.487 0 32.752 5.3355 63.011 24.851 63.011zm-0.91124 36.753c-44.159 0-71.855-35.454-71.855-98.916 0-69.262 35.558-100.05 72.978-100.05 43.563 0 70.872 37.181 70.872 98.925 0 79.333-42.788 100.04-71.608 100.04z"/><path d="m574.95 1073.1c0 4.808 0.87926 9.3042 1.8984 12.318 4.8079 16.118 12.953 20.083 19.48 20.083 18.536 0 26.014-23.488 26.014-61.048 0-34.191-7.9013-57.739-26.226-57.739-9.0883 0-16.742 9.8677-19.376 20.467-0.91523 3.3332-1.7905 8.5248-1.7905 12.106zm-47.92-204.16h47.916v100.39h0.77135c9.44-14.815 22.009-23.276 40.262-23.276 36.122 0 54.27 41.073 54.27 94.78 0 67.859-27.065 104.18-62.136 104.18-16.71 0-27.836-7.4097-37.876-26.182h-1.0112l-2.6658 23.061h-41.141c0.70341-15.971 1.6106-37.844 1.6106-55.11z"/><path d="m785.08 1027.2c0.24779-27.061-7.6895-46.025-22.889-46.025-17.341 0-24.715 25.387-25.239 46.025zm-48.303 33.879c0.56353 34.855 18.888 46.197 41.633 46.197 14.424 0 26.781-3.2013 35.91-6.6344l6.4585 34.471c-12.709 5.4714-32.333 8.9125-51.149 8.9125-51.425 0-79.509-35.142-79.509-95.164 0-64.414 32.576-103.1 75.121-103.1 41.105 0 63.886 34.191 63.886 90.004 0 12.777-0.52756 19.975-1.3708 25.586z"/></g><g style="fill:#ed1c24" transform="matrix(.44715 0 0 .44715 64.841 .00018563)"><polygon style="fill:#ed1c24" points="173.84 7.771 250.54 7.771 250.54 191.38" transform="matrix(3.9966 0 0 3.9966 -172.15 -31.058)"/><polygon style="fill:#ed1c24" points="119.81 7.771 43.073 7.771 43.073 191.38" transform="matrix(3.9966 0 0 3.9966 -172.15 -31.058)"/><polygon style="fill:#ed1c24" points="113.29 154.44 146.84 75.427 195.7 191.37 163.68 191.37 149.07 154.44" transform="matrix(3.9966 0 0 3.9966 -172.15 -31.058)"/></g></svg>
