<svg xmlns="http://www.w3.org/2000/svg" viewBox="0 0 512 512">
 <defs>
  <linearGradient id="linearGradient3834" y2="432.48" gradientUnits="userSpaceOnUse" x2="427.38" gradientTransform="matrix(1.0667 0 0 1.0667 -55.467 0)" y1="547.21" x1="314.62">
   <stop style="stop-color:#070135" offset="0"/>
   <stop style="stop-color:#612d50" offset="1"/>
  </linearGradient>
 </defs>
 <g transform="matrix(3.7341 0 0 3.7341 -1015.6 -1694.1)">
  <rect style="fill:url(#linearGradient3834)" ry="22.058" height="137.12" width="136.55" y="453.68" x="272.25"/>
  <g style="fill:#fff" transform="scale(1.0052 .99483)">
   <path style="stroke-width:1.0667;fill:#fff" d="m339.79 515.38c3.4692 0.00005 6.0998-0.76242 7.8916-2.2874 1.7918-1.5249 2.6877-3.7742 2.6877-6.7479-0.00005-2.9355-0.89595-5.1657-2.6877-6.6907-1.7919-1.563-4.4224-2.3446-7.8916-2.3446h-12.181v18.071h12.181m0.74342 37.342c4.4223 0.00001 7.7391-0.93402 9.9503-2.8021 2.2492-1.868 3.3739-4.6892 3.374-8.4635-0.00006-3.698-1.1056-6.462-3.3168-8.2919-2.2112-1.868-5.5471-2.802-10.008-2.8021h-12.924v22.36h12.924m20.472-30.709c4.7273 1.3725 8.3872 3.9077 10.98 7.6057 2.5923 3.698 3.8885 8.2348 3.8886 13.61-0.00007 8.2348-2.7831 14.373-8.3491 18.414-5.5661 4.0411-14.03 6.0617-25.39 6.0617h-36.542v-85.378h33.053c11.856 0.00009 20.434 1.7919 25.734 5.3755 5.3372 3.5837 8.0059 9.3213 8.006 17.213-0.00008 4.1556-0.97223 7.7011-2.9165 10.637-1.9444 2.8975-4.7655 5.0515-8.4635 6.462"/>
  </g>
 </g>
</svg>
