<?xml version="1.0" encoding="UTF-8" standalone="no"?>
<!-- Created with Inkscape (http://www.inkscape.org/) -->

<svg
   xmlns:dc="http://purl.org/dc/elements/1.1/"
   xmlns:cc="http://creativecommons.org/ns#"
   xmlns:rdf="http://www.w3.org/1999/02/22-rdf-syntax-ns#"
   xmlns:svg="http://www.w3.org/2000/svg"
   xmlns="http://www.w3.org/2000/svg"
   xmlns:sodipodi="http://sodipodi.sourceforge.net/DTD/sodipodi-0.dtd"
   xmlns:inkscape="http://www.inkscape.org/namespaces/inkscape"
   version="1.1"
   id="svg2"
   xml:space="preserve"
   width="250"
   height="131.34103"
   viewBox="0 0 250 131.34103"
   sodipodi:docname="logo.svg"
   inkscape:version="0.92.1 r15371"><metadata
     id="metadata8"><rdf:RDF><cc:Work
         rdf:about=""><dc:format>image/svg+xml</dc:format><dc:type
           rdf:resource="http://purl.org/dc/dcmitype/StillImage" /><dc:title></dc:title></cc:Work></rdf:RDF></metadata><defs
     id="defs6"><clipPath
       clipPathUnits="userSpaceOnUse"
       id="clipPath18"><path
         d="M 0,14 H 25 V 0 H 0 Z"
         id="path16"
         inkscape:connector-curvature="0" /></clipPath></defs><sodipodi:namedview
     pagecolor="#ffffff"
     bordercolor="#666666"
     borderopacity="1"
     objecttolerance="10"
     gridtolerance="10"
     guidetolerance="10"
     inkscape:pageopacity="0"
     inkscape:pageshadow="2"
     inkscape:window-width="1920"
     inkscape:window-height="1167"
     id="namedview4"
     showgrid="false"
     inkscape:zoom="2.9486354"
     inkscape:cx="84.142713"
     inkscape:cy="46.623794"
     inkscape:window-x="0"
     inkscape:window-y="0"
     inkscape:window-maximized="1"
     inkscape:current-layer="g12"
     fit-margin-top="0"
     fit-margin-left="0"
     fit-margin-right="0"
     fit-margin-bottom="0" /><g
     id="g10"
     inkscape:groupmode="layer"
     inkscape:label="logo"
     transform="matrix(1.3333333,0,0,-1.3333333,-2.2493332,133.10011)"><g
       id="g12"><g
         id="g14"
         clip-path="url(#clipPath18)"
         style="fill:#ffffff"
         transform="matrix(8.6705204,0,0,8.6705204,-12.940168,-10.119718)"><g
           id="g20"
           transform="translate(12.666,5.2793)"
           style="fill:#ffffff"><path
             d="m 0,0 c 0,-0.389 0.01,-0.758 0.029,-1.108 0,-1.073 -0.131,-1.791 -0.39,-2.161 -0.332,-0.46 -1.008,-0.691 -2.027,-0.691 -0.797,0 -1.388,0.138 -1.777,0.412 -0.464,0.329 -0.895,0.896 -0.917,1.674 v 3.868 1.607 c 0,0.737 -0.119,1.236 -0.359,1.493 -0.241,0.259 -0.755,0.387 -1.548,0.387 -0.646,0 -1.207,-0.12 -1.687,-0.363 C -9.153,4.875 -9.467,4.55 -9.614,4.14 c 0.073,0.018 0.166,0.028 0.277,0.028 0.349,0 0.634,-0.138 0.855,-0.411 0.221,-0.275 0.333,-0.586 0.333,-0.933 0,-0.401 -0.14,-0.729 -0.417,-0.986 -0.278,-0.256 -0.602,-0.383 -0.971,-0.383 -0.24,0 -0.453,0.063 -0.638,0.192 -0.536,0.347 -0.804,0.789 -0.804,1.319 0,0.257 0.056,0.551 0.166,0.88 0.257,0.715 0.905,1.237 1.938,1.566 0.739,0.238 1.487,0.358 2.243,0.358 1.366,0 2.401,-0.257 3.102,-0.77 0.628,-0.458 0.942,-1.037 0.942,-1.734 l -10e-4,-3.775 c 0,-1.101 0.027,-1.781 0.083,-2.036 0.128,-0.624 0.457,-0.935 0.989,-0.935 0.477,0 0.796,0.247 0.962,0.742 0.164,0.494 0.248,1.209 0.248,2.142 0,0.257 -0.006,0.513 -0.015,0.77 -0.008,0.257 -0.012,0.771 -0.012,1.046 v 2.221 c 0,0.389 -0.009,0.759 -0.027,1.109 0,1.072 0.129,1.791 0.388,2.16 0.334,0.461 1.01,0.691 2.028,0.691 0.795,0 1.388,-0.137 1.777,-0.412 C 4.295,6.661 4.727,6.094 4.748,5.315 V 1.447 -0.159 c 0,-0.737 0.119,-1.237 0.357,-1.493 0.243,-0.259 0.758,-0.388 1.551,-0.388 0.645,0 1.207,0.12 1.686,0.363 0.478,0.243 0.791,0.569 0.939,0.979 -0.074,-0.019 -0.166,-0.029 -0.279,-0.029 -0.348,0 -0.633,0.138 -0.854,0.412 -0.22,0.274 -0.332,0.586 -0.332,0.932 0,0.402 0.139,0.73 0.416,0.987 0.278,0.255 0.602,0.382 0.971,0.382 0.24,0 0.453,-0.064 0.639,-0.192 0.535,-0.347 0.804,-0.788 0.804,-1.318 0,-0.257 -0.056,-0.551 -0.167,-0.881 C 10.221,-1.119 9.574,-1.642 8.541,-1.971 7.803,-2.209 7.055,-2.328 6.299,-2.328 c -1.367,0 -2.403,0.256 -3.102,0.769 -0.629,0.458 -0.943,1.038 -0.943,1.735 v 3.775 c 0,1.101 -0.025,1.78 -0.082,2.035 C 2.043,6.61 1.715,6.922 1.182,6.922 0.707,6.922 0.387,6.675 0.22,6.18 0.057,5.686 -0.025,4.971 -0.025,4.037 -0.025,3.78 -0.021,3.524 -0.012,3.268 -0.004,3.012 0,0 0,0"
             style="fill:#ffffff;fill-opacity:1;fill-rule:nonzero;stroke:none"
             id="path22"
             inkscape:connector-curvature="0" /></g></g></g></g></svg>