<svg xmlns="http://www.w3.org/2000/svg" height="512" width="512" version="1.1" viewBox="-0.2 -1 512 512">
 <path id="puddle" style="stroke-width:1.3529;fill:#9cdaf1" d="m401.51 429.7c0 27.779-64.343 50.295-143.7 50.295-79.373 0-143.72-22.516-143.72-50.295s64.34-50.3 143.72-50.3c79.36 0 143.7 22.525 143.7 50.3z"/>
 <g id="shadow-legs" style="fill:#7dbbe6" transform="matrix(1.3529 0 0 1.3529 -.20947 30.015)">
  <path d="m161.85 331.22v-26.5c0-3.422-0.619-6.284-1.653-8.701 6.853 5.322 7.316 18.695 7.316 18.695v17.004c6.166 0.481 12.534 0.773 19.053 0.861l-0.172-16.92c-0.944-23.13-20.769-25.961-20.769-25.961-7.245-1.645-7.137 1.991-6.409 4.34-7.108-12.122-26.158-10.556-26.158-10.556-6.611 2.357-0.475 6.607-0.475 6.607 10.387 3.775 11.33 15.105 11.33 15.105v23.622c5.72 0.98 11.71 1.79 17.94 2.4z"/>
  <path d="m245.4 283.48s-19.053-1.566-26.16 10.559c0.728-2.35 0.839-5.989-6.408-4.343 0 0-19.824 2.832-20.768 25.961l-0.174 16.946c6.509-0.025 12.876-0.254 19.054-0.671v-17.219s0.465-13.373 7.316-18.695c-1.034 2.417-1.653 5.278-1.653 8.701v26.775c6.214-0.544 12.211-1.279 17.937-2.188v-24.113s0.944-11.33 11.33-15.105c0-0.01 6.13-4.26-0.48-6.62z"/>
 </g>
 <path id="cat" style="stroke-width:1.3529" d="m511.42 221.2 0.38-1.88c-42.158-8.4298-85.422-8.515-111.59-7.4273 4.2994-15.492 5.5928-33.317 5.5928-53.195 0-28.509-10.711-51.316-28.099-68.671 3.0386-9.8084 7.0972-31.591-4.0532-59.476 0 0-19.672-6.2462-64.168 23.535-17.43-4.3563-35.981-6.5073-54.559-6.5073-20.441 0-41.095 2.6029-60.359 7.8873-45.92-31.315-66.19-24.898-66.19-24.898-13.231 33.087-5.0503 57.587-2.565 63.67-15.551 16.784-25.046 38.209-25.046 64.477 0 19.83 2.258 37.621 7.7723 53.083-26.391-0.96-68.076-0.59-108.73 7.54l0.37339 1.8791c40.899-8.1795 82.846-8.4636 109.08-7.4706 1.2149 3.2009 2.5691 6.3058 4.087 9.3064-25.944 0.83607-70.244 4.1425-112.7 16.12l0.52356 1.8399c42.79-12.07 87.474-15.29 113.16-16.08 15.501 28.895 46.063 47.556 100.43 53.417-7.7168 5.1856-15.589 14.001-18.779 28.916-10.516 5.03-43.805 17.307-63.777-17.045 0 0-11.18-20.441-32.58-22.041 0 0-20.759-0.31792-1.4327 12.936 0 0 13.89 6.5452 23.474 31.142 0 0 12.502 41.953 72.832 28.493v43.335s-1.2758 15.328-15.328 20.435c0 0-8.3026 5.7484 0.64261 8.9371 0 0 38.952 3.1941 38.952-28.732v-47.255s-1.545-18.74 7.6613-25.254v77.616s-0.63585 18.518-10.216 25.544c0 0-6.3896 11.491 7.6613 8.3026 0 0 26.819-3.8313 28.098-35.122l0.60744-78.548h6.4465l0.61285 78.548c1.2758 31.291 28.097 35.122 28.097 35.122 14.047 3.1887 7.6613-8.3026 7.6613-8.3026-9.5784-7.0255-10.216-25.544-10.216-25.544v-76.946c9.2009 7.1648 7.6613 24.583 7.6613 24.583v47.255c0 31.928 38.953 28.732 38.953 28.732 8.9371-3.1887 0.64126-8.9371 0.64126-8.9371-14.051-5.1071-15.328-20.435-15.328-20.435v-61.943c0-24.154-10.171-36.946-20.117-43.698 57.983-5.7497 85.808-24.472 98.629-53.562 25.398 0.69808 71.103 3.7921 114.82 16.125l0.5195-1.8399c-43.469-12.261-88.873-15.434-114.53-16.18 1.2149-2.9384 2.2755-5.9946 3.2171-9.1387 26.043-1.0823 69.511-1.0688 111.83 7.3867z"/>
 <path id="face" style="stroke-width:1.3529;fill:#f4cbb2" d="m349.09 157.36c12.488 11.314 19.794 24.977 19.794 39.697 0 68.732-51.236 70.594-114.43 70.594-63.208 0-114.44-9.5175-114.44-70.594 0-14.623 7.2027-28.201 19.537-39.469 20.575-18.779 55.395-8.8356 94.9-8.8356 39.328-0.005 74.029-10.051 94.634 8.6002z"/>
 <path id="eyes" style="stroke-width:1.3529;fill:#fff" d="m216.39 200.56c0 18.932-10.661 34.276-23.811 34.276s-23.811-15.344-23.811-34.276c0-18.929 10.661-34.268 23.811-34.268 13.15 0.0135 23.811 15.342 23.811 34.268zm127.75 0c0 18.932-10.661 34.276-23.811 34.276s-23.811-15.344-23.811-34.276c0-18.929 10.661-34.268 23.811-34.268 13.15 0.0135 23.811 15.342 23.811 34.268z"/>
 <g style="fill:#ad5c51" transform="matrix(1.3529 0 0 1.3529 -.20947 30.015)">
  <path id="pupils" d="m154.46 126.38c0 9.328-5.26 16.887-11.734 16.887s-11.733-7.559-11.733-16.887c0-9.331 5.255-16.894 11.733-16.894 6.47 0 11.73 7.56 11.73 16.89zm94.42 0c0 9.328-5.26 16.887-11.734 16.887s-11.733-7.559-11.733-16.887c0-9.331 5.255-16.894 11.733-16.894 6.47 0 11.73 7.56 11.73 16.89z"/>
  <circle id="nose" cy="148.56" cx="188.5" r="4.401"/>
  <path id="mouth" d="m178.23 159.69c-0.26-0.738 0.128-1.545 0.861-1.805 0.737-0.26 1.546 0.128 1.805 0.861 1.134 3.198 4.167 5.346 7.551 5.346s6.417-2.147 7.551-5.346c0.26-0.738 1.067-1.121 1.805-0.861s1.121 1.067 0.862 1.805c-1.529 4.324-5.639 7.229-10.218 7.229s-8.68-2.89-10.21-7.22z"/>
 </g>
 <path id="octo" style="stroke-width:1.3529;fill:#c3e4d8" d="m108.89 273.29c0 1.5883-1.8616 2.8708-4.1533 2.8708-2.2904 0-4.1533-1.2825-4.1533-2.8708 0-1.5896 1.8629-2.8776 4.1533-2.8776 2.2918 0 4.1533 1.2852 4.1533 2.8816zm11.499 6.3856c0 1.5883-1.8616 2.8708-4.1533 2.8708-2.2904 0-4.1533-1.2825-4.1533-2.8708 0-1.5896 1.8629-2.8776 4.1533-2.8776 2.2918 0 4.1533 1.2852 4.1533 2.8816zm7.0255 8.3067c0 1.5883-1.8616 2.8708-4.1533 2.8708-2.2904 0-4.1533-1.2825-4.1533-2.8708 0-1.5896 1.8629-2.8776 4.1533-2.8776 2.2918 0 4.1533 1.2852 4.1533 2.8816zm6.3856 9.5784c0 1.5883-1.8616 2.8708-4.1533 2.8708-2.2904 0-4.1533-1.2825-4.1533-2.8708 0-1.5896 1.8629-2.8776 4.1533-2.8776 2.2918 0 4.1533 1.2852 4.1533 2.8816zm7.0187 8.9425c0 1.5883-1.8616 2.8708-4.1533 2.8708-2.2904 0-4.1533-1.2825-4.1533-2.8708 0-1.5896 1.8629-2.8776 4.1533-2.8776 2.2918 0 4.1533 1.2852 4.1533 2.8816zm9.5919 7.6573c0 1.5883-1.8616 2.8708-4.1533 2.8708-2.2904 0-4.1533-1.2825-4.1533-2.8708 0-1.5896 1.8629-2.8776 4.1533-2.8776 2.2918 0 4.1533 1.2852 4.1533 2.8816zm13.407 5.1139c0 1.5883-1.8616 2.8708-4.1533 2.8708-2.2904 0-4.1533-1.2825-4.1533-2.8708 0-1.5896 1.8629-2.8776 4.1533-2.8776 2.2918 0 4.1533 1.2852 4.1533 2.8816zm13.353 0c0 1.5883-1.8616 2.8708-4.1533 2.8708-2.2904 0-4.1533-1.2825-4.1533-2.8708 0-1.5896 1.8629-2.8776 4.1533-2.8776 2.2918 0 4.1533 1.2852 4.1533 2.8816zm13.542-2.2187c0 1.5883-1.8616 2.8708-4.1533 2.8708-2.2904 0-4.1533-1.2825-4.1533-2.8708 0-1.5896 1.8629-2.8776 4.1533-2.8776 2.2918 0 4.1533 1.2852 4.1533 2.8816z"/>
 <path id="drop" style="stroke-width:1.3529;fill:#9cdaf1" d="m93.638 281.81-4.1479 14.453s-1.0823 5.2235 3.8422 6.1502c5.1409-0.10011 4.7161-4.9069 4.3603-6.4681z"/>
</svg>
