<svg xmlns="http://www.w3.org/2000/svg" version="1.1" viewBox="0 0 512 512.00001">
 <defs>
  <clipPath id="clipPath20-3" clipPathUnits="userSpaceOnUse">
   <path d="m2764.8 0c1526.9 0 2764.8 651.16 2764.8 1454.4s-1237.9 1454.4-2764.8 1454.4-2764.8-651.2-2764.8-1454.4c0-803.24 1237.9-1454.4 2764.8-1454.4"/>
  </clipPath>
 </defs>
 <g transform="matrix(.92592 0 0 -.92592 3.9787e-7 390.67)">
  <g transform="scale(.1)">
   <g clip-path="url(#clipPath20-3)">
    <path style="fill:#231f20" d="m2764.8 0c1526.9 0 2764.8 651.16 2764.8 1454.4s-1237.9 1454.4-2764.8 1454.4-2764.8-651.2-2764.8-1454.4c0-803.24 1237.9-1454.4 2764.8-1454.4"/>
    <path style="fill:#231f20" d="m4670 367.46c-1121.1-1662.4-3377.6-2101.2-5040-979.99-1662.4 1121.1-2101.1 3377.6-980 5040 1121.1 1662.3 3377.6 2101.1 5040 980 1662.4-1121.2 2101.1-3377.7 980-5040"/>
    <path style="fill:#231f20" d="m4670 367.46c-1121.1-1662.4-3377.6-2101.2-5040-979.99-1662.4 1121.1-2101.1 3377.6-980 5040 1121.1 1662.3 3377.6 2101.1 5040 980 1662.4-1121.2 2101.1-3377.7 980-5040"/>
    <path style="fill:#242021" d="m4663.8 371.68c-1118.8-1658.9-3370.7-2096.8-5029.6-977.97s-2096.8 3370.6-978 5029.6c1118.9 1658.9 3370.7 2096.7 5029.6 977.9s2096.8-3370.6 978-5029.5"/>
    <path style="fill:#242022" d="m4657.5 375.89c-1116.5-1655.5-3363.6-2092.4-5019.1-975.93-1655.4 1116.5-2092.4 3363.6-975.9 5019 1116.5 1655.5 3363.6 2092.5 5019.1 976 1655.4-1116.5 2092.4-3363.6 975.9-5019.1"/>
    <path style="fill:#252122" d="m4651.3 380.1c-1114.2-1652-3356.6-2088.1-5008.7-973.9-1652 1114.2-2088 3356.6-973.9 5008.6 1114.2 1652.1 3356.6 2088.1 5008.7 973.9 1652-1114.1 2088-3356.6 973.9-5008.6"/>
    <path style="fill:#262223" d="m4645 384.31c-1111.8-1648.6-3349.6-2083.7-4998.2-971.87-1648.5 1111.8-2083.6 3349.6-971.8 4998.2s3349.6 2083.7 4998.2 971.9c1648.5-1111.9 2083.6-3349.6 971.8-4998.2"/>
    <path style="fill:#272324" d="m4638.8 388.52c-1109.5-1645.1-3342.6-2079.3-4987.7-969.83-1645.2 1109.5-2079.4 3342.6-969.9 4987.7s3342.6 2079.4 4987.8 969.8c1645.1-1109.5 2079.3-3342.6 969.8-4987.7"/>
    <path style="fill:#272325" d="m4632.5 392.73c-1107.1-1641.7-3335.5-2074.9-4977.2-967.79-1641.7 1107.2-2075 3335.6-967.8 4977.3s3335.5 2075 4977.2 967.8 2075-3335.6 967.8-4977.3"/>
    <path style="fill:#282425" d="m4626.3 396.94c-1104.9-1638.2-3328.6-2070.6-4966.8-965.76-1638.3 1104.9-2070.6 3328.6-965.8 4966.8 1104.9 1638.2 3328.6 2070.6 4966.8 965.8 1638.3-1104.9 2070.6-3328.6 965.8-4966.9"/>
    <path style="fill:#292526" d="m4620 401.16c-1102.5-1634.8-3321.5-2066.3-4956.3-963.73-1634.8 1102.5-2066.3 3321.6-963.7 4956.4 1102.5 1634.8 3321.5 2066.2 4956.3 963.7s2066.3-3321.6 963.7-4956.3"/>
    <path style="fill:#2a2627" d="m4613.8 405.37c-1100.2-1631.4-3314.6-2061.9-4945.9-961.7s-2061.9 3314.5-961.7 4945.9c1100.2 1631.3 3314.6 2061.9 4945.9 961.7s2061.9-3314.6 961.7-4945.9"/>
    <path style="fill:#2a2628" d="m4607.6 409.58c-1097.9-1627.9-3307.6-2057.6-4935.5-959.66s-2057.5 3307.6-959.7 4935.5c1097.9 1627.8 3307.6 2057.5 4935.5 959.6s2057.5-3307.5 959.7-4935.4"/>
    <path style="fill:#2b2729" d="m4601.3 413.79c-1095.5-1624.4-3300.5-2053.2-4925-957.63-1624.4 1095.6-2053.2 3300.5-957.6 4924.9 1095.6 1624.5 3300.5 2053.2 4925 957.7 1624.4-1095.6 2053.2-3300.6 957.6-4925"/>
    <path style="fill:#2b2829" d="m4595.1 418c-1093.3-1621-3293.6-2048.8-4914.6-955.59-1620.9 1093.2-2048.8 3293.5-955.6 4914.5 1093.3 1621 3293.6 2048.9 4914.6 955.6 1620.9-1093.2 2048.8-3293.5 955.6-4914.5"/>
    <path style="fill:#2c282a" d="m4588.8 422.22c-1090.9-1617.5-3286.5-2044.4-4904-953.57-1617.6 1090.9-2044.5 3286.6-953.6 4904 1090.9 1617.6 3286.5 2044.6 4904 953.7 1617.6-1090.9 2044.5-3286.5 953.6-4904.1"/>
    <path style="fill:#2d292b" d="m4582.6 426.43c-1088.6-1614.1-3279.6-2040.1-4893.6-951.53-1614.1 1088.6-2040.1 3279.5-951.6 4893.6 1088.6 1614.1 3279.6 2040.1 4893.6 951.5 1614.1-1088.5 2040.1-3279.5 951.6-4893.6"/>
    <path style="fill:#2e2a2b" d="m4576.3 430.64c-1086.2-1610.6-3272.5-2035.7-4883.1-949.5-1610.7 1086.2-2035.8 3272.5-949.5 4883.2 1086.2 1610.6 3272.5 2035.7 4883.1 949.5 1610.7-1086.2 2035.8-3272.5 949.5-4883.2"/>
    <path style="fill:#2e2a2c" d="m4570.1 434.85c-1083.9-1607.2-3265.5-2031.4-4872.7-947.46s-2031.4 3265.5-947.5 4872.7 3265.5 2031.4 4872.7 947.5c1607.2-1084 2031.4-3265.6 947.5-4872.8"/>
    <path style="fill:#2f2b2d" d="m4563.8 439.06c-1081.6-1603.8-3258.5-2027.1-4862.2-945.43-1603.7 1081.6-2027 3258.5-945.4 4862.3 1081.6 1603.7 3258.5 2027 4862.2 945.4s2027-3258.5 945.4-4862.2"/>
    <path style="fill:#2f2c2d" d="m4557.6 443.27c-1079.3-1600.3-3251.5-2022.7-4851.8-943.39s-2022.7 3251.5-943.4 4851.8 3251.5 2022.6 4851.8 943.4c1600.3-1079.3 2022.7-3251.5 943.4-4851.8"/>
    <path style="fill:#302c2e" d="m4551.4 447.48c-1077-1596.9-3244.5-2018.3-4841.4-941.36-1596.8 1076.9-2018.3 3244.5-941.4 4841.3 1077 1596.9 3244.5 2018.4 4841.4 941.4 1596.8-1076.9 2018.3-3244.5 941.4-4841.3"/>
    <path style="fill:#312d2f" d="m4545.1 451.7c-1074.6-1593.4-3237.5-2013.9-4830.9-939.34s-2013.9 3237.4-939.3 4830.8 3237.5 2014 4830.9 939.4 2013.9-3237.5 939.3-4830.9"/>
    <path style="fill:#312e30" d="m4538.9 455.91c-1072.3-1589.9-3230.5-2009.6-4820.5-937.3-1589.9 1072.3-2009.6 3230.5-937.3 4820.4 1072.3 1590 3230.5 2009.6 4820.5 937.3 1589.9-1072.3 2009.6-3230.4 937.3-4820.4"/>
    <path style="fill:#322e31" d="m4532.6 460.12c-1070-1586.5-3223.4-2005.2-4809.9-935.26-1586.5 1070-2005.3 3223.4-935.3 4809.9s3223.4 2005.2 4809.9 935.3c1586.5-1070 2005.3-3223.5 935.3-4810"/>
    <path style="fill:#332f31" d="m4526.4 464.33c-1067.7-1583-3216.5-2000.8-4799.5-933.23-1583.1 1067.6-2000.9 3216.5-933.3 4799.5 1067.7 1583 3216.5 2000.9 4799.5 933.2 1583.1-1067.6 2000.9-3216.4 933.3-4799.5"/>
    <path style="fill:#333032" d="m4520.1 468.54c-1065.3-1579.5-3209.4-1996.5-4789-931.2s-1996.5 3209.5-931.2 4789.1 3209.4 1996.5 4789 931.2 1996.5-3209.5 931.2-4789.1"/>
    <path style="fill:#343033" d="m4513.9 472.76c-1063-1576.2-3202.5-1992.2-4778.6-929.17-1576.2 1063-1992.2 3202.4-929.2 4778.6 1063 1576.1 3202.5 1992.1 4778.6 929.1 1576.2-1062.9 1992.2-3202.4 929.2-4778.5"/>
    <path style="fill:#343133" d="m4507.6 476.97c-1060.6-1572.7-3195.4-1987.8-4768.1-927.13s-1987.8 3195.5-927.1 4768.2c1060.6 1572.7 3195.4 1987.8 4768.1 927.1s1987.8-3195.4 927.1-4768.1"/>
    <path style="fill:#353134" d="m4501.4 481.18c-1058.4-1569.3-3188.4-1983.4-4757.7-925.1-1569.2 1058.3-1983.4 3188.4-925.1 4757.7 1058.3 1569.2 3188.4 1983.4 4757.7 925 1569.2-1058.3 1983.4-3188.4 925.1-4757.6"/>
    <path style="fill:#363235" d="m4495.1 485.39c-1056-1565.8-3181.4-1979.1-4747.2-923.07s-1979.1 3181.4-923 4747.2c1056 1565.8 3181.4 1979.1 4747.2 923.1s1979.1-3181.4 923-4747.2"/>
    <path style="fill:#363335" d="m4488.9 489.6c-1053.7-1562.4-3174.4-1974.7-4736.8-921.03-1562.3 1053.7-1974.7 3174.4-921 4736.7 1053.7 1562.4 3174.4 1974.7 4736.8 921.1 1562.3-1053.7 1974.7-3174.4 921-4736.8"/>
    <path style="fill:#373336" d="m4482.6 493.82c-1051.3-1558.9-3167.4-1970.3-4726.2-919.01-1559 1051.4-1970.4 3167.4-919 4726.3s3167.4 1970.4 4726.3 919 1970.4-3167.4 919-4726.3"/>
    <path style="fill:#373437" d="m4476.4 498.03c-1049-1555.4-3160.4-1966-4715.8-916.97-1555.5 1049-1966 3160.3-917 4715.8s3160.4 1966 4715.8 917c1555.5-1049.1 1966-3160.4 917-4715.9"/>
    <path style="fill:#383438" d="m4470.2 502.24c-1046.7-1552-3153.4-1961.6-4705.4-914.94s-1961.7 3153.4-915 4705.4 3153.4 1961.6 4705.4 914.93 1961.6-3153.4 914.93-4705.4"/>
    <path style="fill:#383538" d="m4463.9 506.45c-1044.4-1548.6-3146.4-1957.2-4694.9-912.9-1548.6 1044.4-1957.3 3146.4-912.9 4695 1044.4 1548.4 3146.4 1957.2 4694.9 912.8 1548.6-1044.4 1957.3-3146.4 912.9-4695"/>
    <path style="fill:#393639" d="m4457.7 510.66c-1042.1-1545.1-3139.4-1953-4684.5-910.87-1545.1 1042-1952.9 3139.4-910.9 4684.5 1042.1 1545.1 3139.4 1952.9 4684.5 910.8 1545.1-1042 1952.9-3139.3 910.9-4684.4"/>
    <path style="fill:#3a3639" d="m4451.4 514.88c-1039.7-1541.7-3132.3-1948.6-4674-908.84-1541.6 1039.7-1948.6 3132.4-908.8 4674.1 1039.7 1541.6 3132.3 1948.5 4674 908.8 1541.6-1039.7 1948.6-3132.4 908.8-4674"/>
    <path style="fill:#3a373a" d="m4445.2 519.09c-1037.4-1538.2-3125.4-1944.2-4663.6-906.81s-1944.2 3125.3-906.8 4663.5c1037.4 1538.3 3125.4 1944.2 4663.6 906.8s1944.2-3125.3 906.8-4663.5"/>
    <path style="fill:#3b373b" d="m4438.9 523.3c-1035-1534.8-3118.3-1939.9-4653.1-904.77-1534.7 1035.1-1939.8 3118.4-904.7 4653.1 1035 1534.8 3118.3 1939.9 4653.1 904.8 1534.7-1035.1 1939.8-3118.3 904.7-4653.1"/>
    <path style="fill:#3b383c" d="m4432.7 527.51c-1032.7-1531.3-3111.3-1935.5-4642.7-902.74-1531.3 1032.8-1935.4 3111.3-902.7 4642.6 1032.8 1531.3 3111.3 1935.5 4642.7 902.8 1531.3-1032.8 1935.4-3111.4 902.7-4642.7"/>
    <path style="fill:#3c383c" d="m4426.4 531.72c-1030.4-1527.9-3104.3-1931.1-4632.2-900.7-1527.8 1030.4-1931.1 3104.4-900.6 4632.2 1030.4 1527.9 3104.3 1931.1 4632.2 900.7 1527.8-1030.4 1931.1-3104.3 900.6-4632.2"/>
    <path style="fill:#3c393d" d="m4420.2 535.93c-1028.1-1524.4-3097.3-1926.7-4621.7-898.67-1524.5 1028.1-1926.8 3097.3-898.7 4621.7s3097.3 1926.8 4621.7 898.7c1524.5-1028.1 1926.8-3097.3 898.7-4621.8"/>
    <path style="fill:#3d393e" d="m4414 540.14c-1025.8-1521-3090.4-1922.4-4611.3-896.63-1521 1025.8-1922.4 3090.3-896.7 4611.3 1025.8 1521 3090.4 1922.4 4611.3 896.6 1521-1025.7 1922.4-3090.3 896.7-4611.3"/>
    <path style="fill:#3d3a3e" d="m4407.7 544.36c-1023.4-1517.5-3083.3-1918.1-4600.8-894.61-1517.5 1023.4-1918.1 3083.4-894.6 4600.8 1023.4 1517.5 3083.3 1918 4600.8 894.6 1517.5-1023.5 1918.1-3083.3 894.6-4600.8"/>
    <path style="fill:#3e3b3f" d="m4401.5 548.57c-1021.1-1514.1-3076.3-1913.7-4590.4-892.57s-1913.7 3076.3-892.6 4590.4c1021.1 1514 3076.3 1913.6 4590.4 892.5s1913.7-3076.3 892.6-4590.3"/>
    <path style="fill:#3e3b3f" d="m4395.2 552.78c-1018.8-1510.6-3069.3-1909.4-4579.9-890.54-1510.6 1018.8-1909.3 3069.3-890.5 4580 1018.8 1510.6 3069.3 1909.3 4579.9 890.5s1909.3-3069.3 890.5-4579.9"/>
    <path style="fill:#3f3c40" d="m4389 556.99c-1016.5-1507.2-3062.3-1905-4569.5-888.5-1507.1 1016.5-1904.9 3062.3-888.5 4569.4 1016.5 1507.2 3062.3 1905 4569.5 888.5 1507.1-1016.4 1904.9-3062.2 888.5-4569.4"/>
    <path style="fill:#3f3c41" d="m4382.7 561.2c-1014.1-1503.7-3055.2-1900.6-4559-886.47-1503.7 1014.1-1900.6 3055.3-886.4 4559 1014.1 1503.7 3055.2 1900.6 4559 886.5 1503.7-1014.1 1900.6-3055.3 886.4-4559"/>
    <path style="fill:#403c42" d="m4376.5 565.41c-1011.8-1500.3-3048.3-1896.2-4548.6-884.43-1500.2 1011.8-1896.2 3048.2-884.4 4548.5s3048.3 1896.3 4548.5 884.5c1500.3-1011.9 1896.3-3048.3 884.5-4548.6"/>
    <path style="fill:#403d42" d="m4370.2 569.62c-1009.4-1496.8-3041.2-1891.9-4538-882.4-1496.9 1009.5-1891.9 3041.3-882.4 4538.1 1009.4 1496.8 3041.2 1891.9 4538 882.4 1496.9-1009.5 1891.9-3041.3 882.4-4538.1"/>
    <path style="fill:#413d43" d="m4364 573.84c-1007.2-1493.4-3034.2-1887.5-4527.6-880.37-1493.4 1007.2-1887.6 3034.2-880.4 4527.6s3034.2 1887.5 4527.6 880.4c1493.4-1007.2 1887.6-3034.3 880.4-4527.7"/>
    <path style="fill:#413e44" d="m4357.8 578.05c-1004.9-1489.9-3027.3-1883.2-4517.2-878.34-1489.9 1004.8-1883.2 3027.3-878.4 4517.2 1004.9 1489.9 3027.3 1883.1 4517.2 878.3s1883.2-3027.2 878.4-4517.2"/>
    <path style="fill:#423f44" d="m4351.5 582.26c-1002.5-1486.5-3020.2-1878.9-4506.7-876.3-1486.5 1002.5-1878.8 3020.2-876.3 4506.7s3020.2 1878.8 4506.7 876.3 1878.8-3020.3 876.3-4506.7"/>
    <path style="fill:#423f45" d="m4345.3 586.47c-1000.2-1483-3013.3-1874.5-4496.3-874.27s-1874.4 3013.2-874.3 4496.3c1000.2 1483 3013.3 1874.4 4496.3 874.2 1483-1000.1 1874.4-3013.2 874.3-4496.2"/>
    <path style="fill:#434045" d="m4339 590.68c-997.8-1479.6-3006.2-1870.1-4485.8-872.24s-1870.1 3006.3-872.2 4485.8c997.84 1479.6 3006.2 1870.1 4485.8 872.3 1479.6-997.9 1870.1-3006.2 872.2-4485.8"/>
    <path style="fill:#434046" d="m4332.8 594.9c-995.6-1476.1-2999.2-1865.7-4475.4-870.21-1476.1 995.53-1865.7 2999.2-870.2 4475.3 995.56 1476.2 2999.2 1865.8 4475.4 870.2 1476.1-995.5 1865.7-2999.2 870.2-4475.3"/>
    <path style="fill:#444147" d="m4326.5 599.1c-993.2-1472.7-2992.2-1861.4-4464.9-868.16-1472.6 993.2-1861.3 2992.2-868.1 4464.9 993.17 1472.7 2992.2 1861.4 4464.9 868.2 1472.6-993.2 1861.3-2992.2 868.1-4464.9"/>
    <path style="fill:#444147" d="m4320.3 603.32c-990.9-1469.2-2985.2-1857-4454.4-866.14-1469.3 990.88-1857.1 2985.2-866.2 4454.4 990.89 1469.2 2985.2 1857 4454.5 866.2 1469.2-990.9 1857-2985.2 866.1-4454.5"/>
    <path style="fill:#454248" d="m4314 607.53c-988.5-1465.8-2978.2-1852.6-4443.9-864.1-1465.8 988.55-1852.7 2978.2-864.14 4444 988.55 1465.8 2978.2 1852.7 4443.9 864.1 1465.8-988.5 1852.7-2978.2 864.1-4444"/>
    <path style="fill:#454248" d="m4307.8 611.74c-986.2-1462.3-2971.2-1848.3-4433.5-862.07-1462.4 986.23-1848.3 2971.2-862.09 4433.5 986.22 1462.3 2971.2 1848.3 4433.5 862.1 1462.4-986.3 1848.3-2971.2 862.1-4433.6"/>
    <path style="fill:#454249" d="m4301.6 615.95c-984-1458.9-2964.2-1844-4423.1-860.03-1458.9 983.9-1843.9 2964.2-860.05 4423.1 983.9 1458.9 2964.2 1843.9 4423 860 1459-983.9 1844-2964.2 860.2-4423"/>
    <path style="fill:#46434a" d="m4295.3 620.16c-981.6-1455.4-2957.2-1839.6-4412.6-858-1455.4 981.57-1839.6 2957.1-858 4412.6 981.57 1455.4 2957.2 1839.5 4412.6 858 1455.4-981.6 1839.6-2957.2 858-4412.6"/>
    <path style="fill:#46434a" d="m4289.1 624.38c-979.3-1452-2950.2-1835.2-4402.2-855.97-1452 979.25-1835.2 2950.2-855.96 4402.2 979.25 1451.9 2950.2 1835.2 4402.2 855.9 1452-979.2 1835.2-2950.1 856-4402.1"/>
    <path style="fill:#47444b" d="m4282.8 628.59c-976.9-1448.5-2943.1-1830.9-4391.7-853.94-1448.5 976.92-1830.8 2943.2-853.92 4391.6 976.93 1448.7 2943.1 1831 4391.7 854.1 1448.5-976.9 1830.8-2943.2 853.9-4391.7"/>
    <path style="fill:#47444b" d="m4276.6 632.8c-974.6-1445.1-2936.2-1826.5-4381.3-851.9-1445.1 974.59-1826.5 2936.1-851.87 4381.2 974.59 1445.1 2936.2 1826.5 4381.3 851.9s1826.5-2936.1 851.9-4381.2"/>
    <path style="fill:#48454c" d="m4270.3 637.01c-972.3-1441.6-2929.1-1822.1-4370.8-849.87-1441.6 972.27-1822.1 2929.2-849.82 4370.8 972.26 1441.7 2929.1 1822.2 4370.7 849.9 1441.7-972.3 1822.2-2929.2 849.9-4370.8"/>
    <path style="fill:#48464d" d="m4264.1 641.22c-970-1438.2-2922.1-1817.8-4360.3-847.83-1438.2 969.94-1817.8 2922.1-847.88 4360.3 969.94 1438.2 2922.1 1817.8 4360.3 847.9 1438.2-970 1817.8-2922.2 847.9-4360.4"/>
    <path style="fill:#49464e" d="m4257.8 645.43c-967.6-1434.7-2915.1-1813.4-4349.8-845.8-1434.8 967.62-1813.4 2915.2-845.84 4349.9 967.62 1434.7 2915.1 1813.4 4349.8 845.8 1434.8-967.6 1813.4-2915.1 845.8-4349.9"/>
    <path style="fill:#49474f" d="m4251.6 649.65c-965.3-1431.3-2908.1-1809-4339.4-843.77-1431.3 965.29-1809.1 2908.1-843.79 4339.4 965.29 1431.3 2908.1 1809.1 4339.4 843.8s1809.1-2908.2 843.8-4339.4"/>
    <path style="fill:#49474f" d="m4245.4 653.86c-963-1427.8-2901.2-1804.7-4329-841.74-1427.8 962.97-1804.7 2901.1-841.74 4329 962.96 1427.8 2901.1 1804.7 4328.9 841.7s1804.7-2901.1 841.8-4328.9"/>
    <path style="fill:#4a474f" d="m4239.1 658.07c-960.6-1424.4-2894.1-1800.4-4318.5-839.7-1424.4 960.64-1800.3 2894.1-839.7 4318.5 960.64 1424.4 2894.1 1800.3 4318.5 839.7 1424.4-960.7 1800.3-2894.1 839.7-4318.5"/>
    <path style="fill:#4a4850" d="m4232.9 662.28c-958.4-1420.9-2887.1-1796-4308.1-837.67-1420.9 958.31-1796 2887.1-837.66 4308 958.32 1421 2887.1 1796 4308.1 837.7 1420.9-958.3 1796-2887.1 837.7-4308"/>
    <path style="fill:#4b4851" d="m4226.6 666.49c-956-1417.5-2880.1-1791.6-4297.6-835.63-1417.5 955.98-1791.6 2880-835.61 4297.5s2880.1 1791.7 4297.6 835.7 1791.6-2880.1 835.6-4297.6"/>
    <path style="fill:#4b4951" d="m4220.4 670.71c-953.7-1414-2873.1-1787.3-4287.2-833.61-1414 953.66-1787.2 2873.1-833.57 4287.1 953.67 1414.1 2873.1 1787.3 4287.2 833.6 1414-953.6 1787.2-2873 833.6-4287.1"/>
    <path style="fill:#4b4952" d="m4214.1 674.92c-951.3-1410.6-2866.1-1782.9-4276.7-831.58-1410.6 951.34-1782.9 2866.1-831.52 4276.7 951.34 1410.6 2866.1 1782.9 4276.7 831.6 1410.6-951.4 1782.9-2866.1 831.5-4276.7"/>
    <path style="fill:#4b4952" d="m4207.9 679.13c-949-1407.2-2859.1-1778.5-4266.2-829.54-1407.2 949.01-1778.6 2859-829.58 4266.2 949.01 1407.2 2859.1 1778.6 4266.2 829.5 1407.2-949 1778.6-2859 829.6-4266.2"/>
    <path style="fill:#4c4a53" d="m4201.6 683.34c-946.6-1403.7-2852-1774.1-4255.7-827.5-1403.7 946.68-1774.2 2852.1-827.53 4255.8 946.68 1403.7 2852 1774.2 4255.7 827.5s1774.2-2852.1 827.5-4255.8"/>
    <path style="fill:#4c4a54" d="m4195.4 687.55c-944.4-1400.2-2845.1-1769.8-4245.3-825.47-1400.3 944.36-1769.9 2845-825.49 4245.3 944.36 1400.2 2845.1 1769.8 4245.3 825.4 1400.3-944.3 1769.9-2845 825.5-4245.2"/>
    <path style="fill:#4d4b54" d="m4189.1 691.77c-942-1396.8-2838-1765.5-4234.8-823.45-1396.8 942.04-1765.5 2838.1-823.44 4234.9 942.03 1396.8 2838 1765.4 4234.8 823.4s1765.5-2838 823.4-4234.8"/>
    <path style="fill:#4d4b55" d="m4182.9 695.98c-939.7-1393.4-2831-1761.1-4224.4-821.41-1393.3 939.7-1761.1 2831-821.4 4224.4 939.71 1393.3 2831 1761.1 4224.4 821.4 1393.3-939.7 1761.1-2831.1 821.4-4224.4"/>
    <path style="fill:#4d4b55" d="m4176.6 700.19c-937.3-1389.9-2824-1756.8-4213.9-819.38-1389.9 937.38-1756.7 2824-819.35 4214 937.38 1389.8 2824 1756.7 4214 819.3 1389.8-937.4 1756.6-2824 819.2-4213.9"/>
    <path style="fill:#4d4c56" d="m4170.4 704.4c-935-1386.5-2817-1752.4-4203.5-817.34-1386.4 935.05-1752.4 2817-817.31 4203.4 935.06 1386.5 2817 1752.4 4203.5 817.4 1386.4-935.1 1752.4-2817 817.3-4203.5"/>
    <path style="fill:#4e4c56" d="m4164.2 708.61c-932.8-1383-2810-1748-4193.1-815.31-1383 932.73-1748 2810-815.26 4193 932.73 1383 2810 1748.1 4193.1 815.3 1383-932.7 1748-2810 815.3-4193"/>
    <path style="fill:#4e4d57" d="m4157.9 712.82c-930.4-1379.6-2803-1743.6-4182.5-813.27-1379.6 930.4-1743.7 2803-813.32 4182.6 930.4 1379.5 2803 1743.6 4182.5 813.2 1379.6-930.4 1743.7-2803 813.3-4182.6"/>
    <path style="fill:#4f4d57" d="m4151.7 717.04c-928.1-1376.1-2796-1739.3-4172.1-811.25-1376.1 928.08-1739.4 2796-811.27 4172.1 928.07 1376.1 2796 1739.3 4172.1 811.2 1376.1-928 1739.4-2796 811.3-4172.1"/>
    <path style="fill:#4f4d58" d="m4145.4 721.25c-925.7-1372.7-2789-1735-4161.6-809.21-1372.7 925.75-1735 2789-809.23 4161.7 925.75 1372.7 2789 1734.9 4161.6 809.2 1372.7-925.8 1735-2789 809.2-4161.6"/>
    <path style="fill:#4f4d59" d="m4139.2 725.46c-923.4-1369.2-2782-1730.6-4151.2-807.18-1369.2 923.43-1730.6 2782-807.18 4151.2s2782 1730.6 4151.2 807.1c1369.2-923.4 1730.6-2781.9 807.2-4151.1"/>
    <path style="fill:#4f4e59" d="m4132.9 729.67c-921.1-1365.8-2774.9-1726.2-4140.7-805.14-1365.8 921.09-1726.2 2775-805.14 4140.8 921.1 1365.7 2774.9 1726.2 4140.7 805.1s1726.2-2775 805.1-4140.7"/>
    <path style="fill:#504e5a" d="m4126.7 733.88c-918.8-1362.3-2768-1721.9-4130.3-803.11-1362.3 918.77-1721.9 2767.9-803.09 4130.2 918.77 1362.4 2768 1721.9 4130.3 803.2 1362.3-918.8 1721.9-2768 803.1-4130.3"/>
    <path style="fill:#504e5a" d="m4120.4 738.09c-916.4-1358.9-2760.9-1717.5-4119.8-801.07-1358.8 916.44-1717.5 2761-801.05 4119.8 916.45 1358.9 2761 1717.6 4119.8 801.1 1358.8-916.4 1717.5-2760.9 801-4119.8"/>
    <path style="fill:#504f5b" d="m4114.2 742.3c-914.1-1355.4-2754-1713.2-4109.4-799.04-1355.4 914.12-1713.1 2753.9-799 4109.3 914.12 1355.4 2754 1713.2 4109.4 799.1s1713.1-2754 799-4109.4"/>
    <path style="fill:#504f5b" d="m4108 746.52c-911.8-1352-2747-1708.8-4098.9-797.01-1352 911.79-1708.9 2746.9-797.06 4098.9 911.8 1352 2747 1708.8 4099 797 1351.9-911.8 1708.8-2746.9 797-4098.9"/>
    <path style="fill:#51505c" d="m4101.7 750.73c-909.5-1348.5-2739.9-1704.4-4088.4-794.98-1348.6 909.47-1704.5 2740-795.02 4088.4 909.47 1348.5 2739.9 1704.4 4088.4 795 1348.6-909.5 1704.5-2740 795-4088.5"/>
    <path style="fill:#51505d" d="m4095.5 754.94c-907.2-1345.1-2733-1700.1-4078-792.94-1345.1 907.14-1700.1 2732.9-792.97 4078 907.14 1345.1 2733 1700.1 4078 792.9 1345.1-907.1 1700.1-2732.9 793-4078"/>
    <path style="fill:#51505d" d="m4089.2 759.15c-904.8-1341.6-2725.9-1695.7-4067.5-790.91-1341.6 904.82-1695.7 2726-790.92 4067.6 904.81 1341.6 2725.9 1695.7 4067.5 790.9s1695.7-2725.9 790.9-4067.6"/>
    <path style="fill:#52515e" d="m4083 763.36c-902.5-1338.2-2718.9-1691.4-4057.1-788.87-1338.2 902.49-1691.4 2718.9-788.88 4057.1 902.49 1338.1 2718.9 1691.3 4057.1 788.8 1338.2-902.4 1691.4-2718.9 788.9-4057"/>
    <path style="fill:#52515e" d="m4076.7 767.57c-900.1-1334.7-2711.9-1687-4046.6-786.84-1334.7 900.17-1687 2711.9-786.83 4046.7 900.16 1334.7 2711.9 1687 4046.6 786.8s1687-2711.9 786.8-4046.6"/>
    <path style="fill:#52515f" d="m4070.5 771.78c-897.9-1331.3-2704.9-1682.6-4036.2-784.8-1331.3 897.83-1682.6 2704.9-784.79 4036.2 897.84 1331.2 2704.9 1682.6 4036.2 784.8 1331.3-897.9 1682.6-2704.9 784.8-4036.2"/>
    <path style="fill:#52525f" d="m4064.2 776c-895.5-1327.8-2697.8-1678.3-4025.7-782.78-1327.8 895.51-1678.3 2697.9-782.74 4025.7 895.51 1327.9 2697.8 1678.3 4025.7 782.8 1327.8-895.5 1678.3-2697.9 782.7-4025.7"/>
    <path style="fill:#53525f" d="m4058 780.21c-893.2-1324.4-2690.9-1673.9-4015.3-780.74-1324.3 893.18-1673.9 2690.9-780.7 4015.2 893.18 1324.4 2690.9 1673.9 4015.3 780.8 1324.3-893.2 1673.9-2690.9 780.7-4015.3"/>
    <path style="fill:#535260" d="m4051.8 784.42c-890.9-1320.9-2683.9-1669.6-4004.8-778.71-1321 890.86-1669.6 2683.9-778.75 4004.8s2683.8 1669.6 4004.8 778.7c1321-890.8 1669.6-2683.8 778.8-4004.8"/>
    <path style="fill:#535261" d="m4045.5 788.63c-888.5-1317.5-2676.9-1665.2-3994.3-776.67-1317.5 888.53-1665.2 2676.8-776.71 3994.3 888.53 1317.5 2676.9 1665.2 3994.3 776.7 1317.5-888.6 1665.2-2676.9 776.7-3994.4"/>
    <path style="fill:#535361" d="m4039.3 792.84c-886.2-1314-2669.9-1660.8-3983.9-774.64-1314 886.21-1660.9 2669.9-774.67 3983.9 886.21 1314 2669.9 1660.8 3983.9 774.6s1660.9-2669.8 774.7-3983.9"/>
    <path style="fill:#545362" d="m4033 797.06c-883.9-1310.6-2662.8-1656.5-3973.4-772.62s-1656.5 2662.9-772.62 3973.5 2662.8 1656.5 3973.4 772.6 1656.5-2662.9 772.6-3973.4"/>
    <path style="fill:#545362" d="m4026.8 801.27c-881.6-1307.1-2655.9-1652.1-3963-770.58-1307.1 881.56-1652.1 2655.8-770.57 3963 881.55 1307.1 2655.9 1652.1 3963 770.5 1307.1-881.5 1652.1-2655.8 770.6-3962.9"/>
    <path style="fill:#545463" d="m4020.5 805.48c-879.2-1303.7-2648.8-1647.8-3952.5-768.54-1303.7 879.22-1647.8 2648.9-768.53 3952.5 879.23 1303.7 2648.8 1647.8 3952.5 768.6s1647.8-2648.8 768.5-3952.5"/>
    <path style="fill:#545463" d="m4014.3 809.69c-876.9-1300.2-2641.8-1643.4-3942.1-766.51-1300.2 876.91-1643.4 2641.8-766.48 3942 876.9 1300.3 2641.8 1643.4 3942.1 766.6 1300.2-877 1643.4-2641.9 766.5-3942.1"/>
    <path style="fill:#545464" d="m4008 813.9c-874.5-1296.8-2634.8-1639-3931.6-764.47-1296.8 874.57-1639 2634.8-764.44 3931.6 874.58 1296.8 2634.8 1639.1 3931.6 764.5s1639-2634.8 764.4-3931.6"/>
    <path style="fill:#555564" d="m4001.8 818.11c-872.3-1293.3-2627.8-1634.7-3921.2-762.44-1293.3 872.25-1634.6 2627.8-762.39 3921.1 872.25 1293.4 2627.8 1634.7 3921.2 762.5 1293.3-872.3 1634.6-2627.9 762.4-3921.2"/>
    <path style="fill:#555565" d="m3995.6 822.32c-870-1289.9-2620.8-1630.3-3910.7-760.4-1289.9 869.92-1630.4 2620.8-760.45 3910.7 869.93 1289.9 2620.8 1630.3 3910.6 760.4 1290-869.9 1630.5-2620.8 760.6-3910.7"/>
    <path style="fill:#555565" d="m3989.3 826.54c-867.6-1286.4-2613.8-1626-3900.2-758.38-1286.5 867.6-1626 2613.8-758.4 3900.2 867.59 1286.4 2613.8 1626 3900.2 758.4 1286.5-867.6 1626-2613.8 758.4-3900.3"/>
    <path style="fill:#556" d="m3983.1 830.75c-865.3-1283-2606.8-1621.6-3889.8-756.34-1283 865.27-1621.6 2606.8-756.36 3889.8 865.27 1283 2606.8 1621.6 3889.8 756.3s1621.6-2606.8 756.4-3889.8"/>
    <path style="fill:#555667" d="m3976.8 834.96c-862.9-1279.5-2599.8-1617.3-3879.3-754.31-1279.5 862.95-1617.3 2599.8-754.32 3879.4 862.95 1279.5 2599.8 1617.2 3879.3 754.3 1279.5-863 1617.3-2599.8 754.3-3879.3"/>
    <path style="fill:#555667" d="m3970.6 839.17c-860.6-1276.1-2592.8-1612.9-3868.9-752.28-1276.1 860.63-1612.9 2592.8-752.27 3868.9 860.62 1276 2592.8 1612.9 3868.9 752.2 1276.1-860.6 1612.9-2592.7 752.3-3868.8"/>
    <path style="fill:#565667" d="m3964.3 843.38c-858.3-1272.6-2585.7-1608.5-3858.4-750.24-1272.6 858.29-1608.5 2585.8-750.22 3858.5 858.29 1272.6 2585.7 1608.5 3858.4 750.2 1272.6-858.3 1608.5-2585.8 750.2-3858.4"/>
    <path style="fill:#565768" d="m3958.1 847.6c-856-1269.2-2578.8-1604.2-3848-748.21-1269.2 855.97-1604.1 2578.7-748.18 3847.9 855.97 1269.2 2578.8 1604.2 3848 748.3 1269.2-856 1604.1-2578.8 748.2-3848"/>
    <path style="fill:#565768" d="m3951.8 851.81c-853.6-1265.7-2571.7-1599.8-3837.5-746.18-1265.7 853.64-1599.8 2571.8-746.14 3837.5 853.65 1265.8 2571.7 1599.9 3837.5 746.2 1265.7-853.6 1599.8-2571.7 746.1-3837.5"/>
    <path style="fill:#565769" d="m3945.6 856.02c-851.3-1262.3-2564.8-1595.5-3827-744.14-1262.3 851.31-1595.5 2564.7-744.19 3827 851.32 1262.3 2564.8 1595.5 3827 744.2 1262.3-851.4 1595.5-2564.8 744.2-3827.1"/>
    <path style="fill:#565769" d="m3939.4 860.23c-849-1258.8-2557.8-1591.1-3816.6-742.11-1258.9 848.99-1591.1 2557.8-742.14 3816.6 848.98 1258.9 2557.7 1591.1 3816.5 742.1 1258.9-849 1591.1-2557.7 742.2-3816.6"/>
    <path style="fill:#56586a" d="m3933.1 864.44c-846.7-1255.4-2550.7-1586.7-3806.1-740.07-1255.4 846.66-1586.8 2550.7-740.1 3806.1 846.66 1255.4 2550.7 1586.7 3806.1 740.1 1255.4-846.7 1586.8-2550.8 740.1-3806.2"/>
    <path style="fill:#57586a" d="m3926.9 868.66c-844.4-1252-2543.8-1582.4-3795.7-738.05-1252 844.33-1582.4 2543.7-738.06 3795.7 844.34 1251.9 2543.8 1582.4 3795.7 738 1252-844.3 1582.4-2543.7 738.1-3795.6"/>
    <path style="fill:#57586b" d="m3920.6 872.87c-842-1248.5-2536.7-1578-3785.2-736.01-1248.5 842.01-1578 2536.7-736.01 3785.2 842.01 1248.5 2536.7 1578 3785.2 736s1578-2536.7 736-3785.2"/>
    <path style="fill:#57586b" d="m3914.4 877.08c-839.7-1245-2529.7-1573.7-3774.8-733.98-1245 839.68-1573.6 2529.7-733.97 3774.8 839.69 1245 2529.7 1573.6 3774.8 733.9 1245-839.6 1573.6-2529.7 734-3774.7"/>
    <path style="fill:#57586c" d="m3908.1 881.29c-837.3-1241.6-2522.7-1569.3-3764.3-731.95-1241.6 837.36-1569.3 2522.7-731.92 3764.3 837.36 1241.6 2522.7 1569.4 3764.3 732s1569.3-2522.7 731.9-3764.3"/>
    <path style="fill:#57596c" d="m3901.9 885.5c-835.1-1238.2-2515.7-1564.9-3753.9-729.91-1238.1 835.03-1564.9 2515.7-729.88 3753.8 835.04 1238.2 2515.7 1565 3753.9 729.9 1238.1-835 1564.9-2515.7 729.9-3753.8"/>
    <path style="fill:#57596d" d="m3895.6 889.71c-832.7-1234.7-2508.6-1560.6-3743.4-727.87-1234.7 832.7-1560.5 2508.7-727.83 3743.4 832.7 1234.7 2508.6 1560.6 3743.4 727.9 1234.7-832.7 1560.5-2508.7 727.8-3743.4"/>
    <path style="fill:#57596d" d="m3889.4 893.93c-830.4-1231.3-2501.7-1556.2-3732.9-725.85-1231.3 830.38-1556.3 2501.7-725.89 3732.9 830.39 1231.3 2501.7 1556.2 3732.9 725.8 1231.3-830.3 1556.3-2501.6 725.9-3732.9"/>
    <path style="fill:#57596e" d="m3883.1 898.14c-828-1227.8-2494.6-1551.9-3722.4-723.82s-1551.9 2494.7-723.84 3722.5c828.05 1227.8 2494.6 1551.9 3722.4 723.8 1227.8-828 1551.9-2494.7 723.8-3722.5"/>
    <path style="fill:#57596e" d="m3876.9 902.35c-825.7-1224.4-2487.7-1547.5-3712-721.78-1224.4 825.73-1547.5 2487.6-721.8 3712 825.73 1224.3 2487.7 1547.5 3712 721.8 1224.4-825.8 1547.5-2487.7 721.8-3712"/>
    <path style="fill:#585a6f" d="m3870.6 906.56c-823.4-1220.9-2480.6-1543.2-3701.5-719.75-1220.9 823.39-1543.1 2480.7-719.75 3701.6 823.4 1220.9 2480.6 1543.1 3701.6 719.7 1220.8-823.4 1543-2480.6 719.6-3701.5"/>
    <path style="fill:#585a6f" d="m3864.4 910.77c-821.1-1217.5-2473.6-1538.8-3691.1-717.71-1217.5 821.04-1538.8 2473.6-717.71 3691.1 821.08 1217.4 2473.6 1538.8 3691.1 717.7s1538.8-2473.7 717.7-3691.1"/>
    <path style="fill:#585a70" d="m3858.2 914.98c-818.8-1214-2466.7-1534.4-3680.7-715.68-1214 818.7-1534.4 2466.6-715.66 3680.7 818.75 1214 2466.7 1534.4 3680.7 715.6 1214-818.7 1534.4-2466.6 715.7-3680.6"/>
    <path style="fill:#585a70" d="m3851.9 919.2c-816.4-1210.6-2459.6-1530.1-3670.2-713.65-1210.5 816.45-1530 2459.6-713.62 3670.2 816.43 1210.5 2459.6 1530 3670.2 713.6 1210.5-816.4 1530-2459.6 713.6-3670.2"/>
    <path style="fill:#585b71" d="m3845.7 923.41c-814.1-1207.1-2452.7-1525.7-3659.8-711.62-1207.1 814.11-1525.7 2452.6-711.57 3659.7 814.1 1207.1 2452.7 1525.7 3659.8 711.6s1525.7-2452.6 711.6-3659.7"/>
    <path style="fill:#585b71" d="m3839.4 927.62c-811.8-1203.7-2445.6-1521.4-3649.2-709.58-1203.7 811.76-1521.4 2445.6-709.63 3649.3 811.78 1203.7 2445.6 1521.4 3649.2 709.6 1203.7-811.8 1521.4-2445.6 709.6-3649.3"/>
    <path style="fill:#585b71" d="m3833.2 931.83c-809.5-1200.2-2438.6-1517-3638.8-707.55-1200.2 809.42-1517 2438.6-707.58 3638.8 809.44 1200.2 2438.6 1517 3638.8 707.5 1200.2-809.4 1517-2438.6 707.6-3638.8"/>
    <path style="fill:#585c72" d="m3826.9 936.04c-807.1-1196.8-2431.6-1512.6-3628.3-705.51-1196.8 807.07-1512.7 2431.6-705.54 3628.4 807.12 1196.8 2431.6 1512.6 3628.3 705.5 1196.8-807.1 1512.7-2431.6 705.5-3628.4"/>
    <path style="fill:#585c72" d="m3820.7 940.25c-804.8-1193.3-2424.6-1508.3-3617.9-703.48-1193.3 804.83-1508.3 2424.6-703.49 3617.9 804.79 1193.3 2424.6 1508.3 3617.9 703.5s1508.3-2424.6 703.5-3618"/>
    <path style="fill:#585c73" d="m3814.4 944.46c-802.4-1189.9-2417.5-1503.9-3607.4-701.44-1189.9 802.48-1503.9 2417.6-701.45 3607.5 802.47 1189.8 2417.6 1503.9 3607.4 701.4 1189.9-802.5 1503.9-2417.6 701.4-3607.4"/>
    <path style="fill:#585c73" d="m3808.2 948.68c-800.1-1186.4-2410.6-1499.6-3597-699.42-1186.4 800.14-1499.5 2410.5-699.4 3597 800.14 1186.4 2410.6 1499.5 3597 699.4 1186.4-800.2 1499.5-2410.6 699.4-3597"/>
    <path style="fill:#595c74" d="m3802 952.89c-797.9-1183-2403.6-1495.2-3586.6-697.38-1183 797.79-1495.2 2403.6-697.36 3586.5 797.82 1183 2403.6 1495.2 3586.6 697.4s1495.2-2403.5 697.4-3586.5"/>
    <path style="fill:#595c74" d="m3795.7 957.1c-795.5-1179.5-2396.5-1490.8-3576.1-695.35-1179.5 795.45-1490.8 2396.6-695.31 3576 795.49 1179.6 2396.5 1490.9 3576.1 695.4 1179.5-795.5 1490.8-2396.6 695.3-3576.1"/>
    <path style="fill:#585c75" d="m3789.5 961.31c-793.2-1176.1-2389.6-1486.5-3565.7-693.31-1176 793.2-1486.4 2389.6-693.27 3565.6 793.17 1176.1 2389.6 1486.5 3565.7 693.3 1176-793.1 1486.4-2389.5 693.3-3565.6"/>
    <path style="fill:#585d75" d="m3783.2 965.52c-790.8-1172.6-2382.5-1482.1-3555.1-691.28-1172.7 790.86-1482.2 2382.6-691.32 3555.2 790.83 1172.6 2382.5 1482.1 3555.1 691.3 1172.7-790.9 1482.2-2382.6 691.3-3555.2"/>
    <path style="fill:#585d75" d="m3777 969.73c-788.5-1169.2-2375.6-1477.8-3544.7-689.24-1169.2 788.51-1477.8 2375.5-689.28 3544.7s2375.6 1477.8 3544.7 689.2c1169.2-788.5 1477.8-2375.5 689.3-3544.7"/>
    <path style="fill:#595d76" d="m3770.7 973.94c-786.1-1165.7-2368.5-1473.4-3534.2-687.21-1165.7 786.17-1473.4 2368.6-687.23 3534.3 786.18 1165.7 2368.5 1473.4 3534.2 687.2s1473.4-2368.5 687.2-3534.3"/>
    <path style="fill:#595d76" d="m3764.5 978.16c-783.9-1162.3-2361.5-1469-3523.8-685.18s-1469.1 2361.5-685.19 3523.8c783.86 1162.2 2361.5 1469 3523.8 685.2 1162.3-783.9 1469.1-2361.6 685.2-3523.8"/>
    <path style="fill:#595d77" d="m3758.2 982.37c-781.5-1158.8-2354.5-1464.7-3513.3-683.15-1158.8 781.58-1464.7 2354.5-683.14 3513.4 781.53 1158.8 2354.5 1464.6 3513.3 683.1s1464.7-2354.5 683.1-3513.3"/>
    <path style="fill:#595e78" d="m3752 986.58c-779.2-1155.4-2347.5-1460.3-3502.9-681.11-1155.4 779.23-1460.3 2347.5-681.1 3502.9 779.21 1155.3 2347.5 1460.3 3502.9 681.1s1460.3-2347.5 681.1-3502.9"/>
    <path style="fill:#585e78" d="m3745.8 990.79c-776.9-1151.9-2340.5-1456-3492.5-679.08-1151.9 776.89-1455.9 2340.5-679.05 3492.4 776.88 1152 2340.4 1456 3492.4 679.1s1456-2340.5 679.2-3492.4"/>
    <path style="fill:#595e78" d="m3739.5 995c-774.5-1148.5-2333.5-1451.6-3482-677.04-1148.4 774.54-1451.6 2333.4-677.01 3481.9 774.56 1148.5 2333.5 1451.6 3482 677.1 1148.4-774.6 1451.6-2333.5 677-3482"/>
    <path style="fill:#595e79" d="m3733.3 999.22c-772.3-1145-2326.5-1447.2-3471.6-675.02-1145 772.2-1447.2 2326.5-674.97 3471.5 772.23 1145.1 2326.5 1447.3 3471.5 675 1145.1-772.2 1447.3-2326.5 675.1-3471.5"/>
    <path style="fill:#595e79" d="m3727 1003.4c-769.9-1141.6-2319.5-1442.9-3461-672.96-1141.6 769.96-1442.9 2319.5-673.02 3461.1 769.91 1141.6 2319.5 1442.9 3461 673 1141.6-769.9 1442.9-2319.5 673-3461.1"/>
    <path style="fill:#595f7a" d="m3720.8 1007.6c-767.6-1138.1-2312.5-1438.5-3450.6-670.91-1138.2 767.61-1438.6 2312.5-670.97 3450.6 767.57 1138.1 2312.5 1438.5 3450.6 670.9 1138.2-767.5 1438.6-2312.4 671-3450.6"/>
    <path style="fill:#595f7a" d="m3714.5 1011.8c-765.2-1134.6-2305.4-1434.1-3440.1-668.86-1134.7 765.26-1434.2 2305.5-668.93 3440.2 765.25 1134.7 2305.4 1434.1 3440.1 668.9 1134.7-765.3 1434.2-2305.5 668.9-3440.2"/>
    <path style="fill:#595f7a" d="m3708.3 1016.1c-762.9-1131.3-2298.5-1429.8-3429.7-666.92-1131.2 762.92-1429.8 2298.4-666.88 3429.7 762.92 1131.2 2298.5 1429.8 3429.7 666.9 1131.2-763 1429.8-2298.5 666.9-3429.7"/>
    <path style="fill:#595f7b" d="m3702 1020.3c-760.6-1127.8-2291.4-1425.5-3419.2-664.87-1127.8 760.57-1425.4 2291.5-664.84 3419.3 760.6 1127.7 2291.4 1425.4 3419.2 664.8s1425.4-2291.4 664.8-3419.2"/>
    <path style="fill:#595f7b" d="m3695.8 1024.5c-758.3-1124.3-2284.4-1421.1-3408.8-662.83-1124.3 758.33-1421.1 2284.4-662.79 3408.7 758.27 1124.4 2284.4 1421.1 3408.8 662.9 1124.3-758.3 1421.1-2284.5 662.8-3408.8"/>
    <path style="fill:#595f7c" d="m3689.6 1028.7c-756-1120.9-2277.5-1416.7-3398.4-660.78-1120.9 755.98-1416.7 2277.5-660.75 3398.3 755.95 1120.9 2277.4 1416.8 3398.4 660.8 1120.9-755.9 1416.7-2277.4 660.8-3398.3"/>
    <path style="fill:#585f7c" d="m3683.3 1032.9c-753.6-1117.4-2270.4-1412.4-3387.9-658.74-1117.4 753.64-1412.3 2270.4-658.7 3387.8 753.62 1117.5 2270.4 1412.4 3387.9 658.8 1117.4-753.6 1412.3-2270.4 658.7-3387.9"/>
    <path style="fill:#58607d" d="m3677.1 1037.1c-751.3-1114-2263.5-1408-3377.4-656.69-1114 751.29-1408.1 2263.4-656.76 3377.4 751.3 1114 2263.5 1408 3377.4 656.7 1114-751.3 1408-2263.4 656.72-3377.4"/>
    <path style="fill:#59607d" d="m3670.8 1041.3c-749-1110.5-2256.4-1403.6-3366.9-654.65-1110.6 748.95-1403.7 2256.4-654.72 3367 748.97 1110.5 2256.4 1403.6 3366.9 654.7 1110.6-749 1403.7-2256.4 654.7-3367"/>
    <path style="fill:#59607d" d="m3664.6 1045.6c-746.7-1107.1-2249.4-1399.4-3356.5-652.7-1107.1 746.6-1399.3 2249.4-652.67 3356.5 746.64 1107.1 2249.4 1399.3 3356.5 652.65s1399.3-2249.4 652.65-3356.5"/>
    <path style="fill:#58607e" d="m3658.3 1049.8c-744.3-1103.7-2242.4-1395-3346-650.66-1103.6 744.36-1394.9 2242.4-650.62 3346.1 744.31 1103.6 2242.4 1394.9 3346 650.6 1103.7-744.3 1394.9-2242.4 650.6-3346"/>
    <path style="fill:#58607e" d="m3652.1 1054c-742-1100.2-2235.4-1390.6-3335.6-648.61-1100.2 742.01-1390.6 2235.4-648.58 3335.6 741.99 1100.2 2235.4 1390.5 3335.6 648.6 1100.2-742 1390.6-2235.4 648.58-3335.6"/>
    <path style="fill:#58607f" d="m3645.8 1058.2c-739.6-1096.8-2228.3-1386.2-3325.1-646.57-1096.7 739.67-1386.2 2228.4-646.54 3325.2 739.67 1096.7 2228.3 1386.2 3325.1 646.5 1096.7-739.7 1386.2-2228.4 646.5-3325.1"/>
    <path style="fill:#59607f" d="m3639.6 1062.4c-737.4-1093.3-2221.4-1381.9-3314.7-644.52-1093.3 737.32-1381.8 2221.3-644.49 3314.6 737.34 1093.3 2221.4 1381.9 3314.7 644.6 1093.3-737.4 1381.8-2221.4 644.5-3314.7"/>
    <path style="fill:#58607f" d="m3633.4 1066.6c-735.1-1089.8-2214.4-1377.5-3304.3-642.48-1089.8 734.98-1377.5 2214.4-642.44 3304.2 735.01 1089.9 2214.3 1377.5 3304.2 642.5 1089.8-735 1377.5-2214.4 642.5-3304.2"/>
    <path style="fill:#586180" d="m3627.1 1070.8c-732.7-1086.4-2207.3-1373.1-3293.8-640.43-1086.4 732.63-1373.1 2207.3-640.4 3293.7 732.69 1086.4 2207.3 1373.1 3293.7 640.5 1086.4-732.7 1373.2-2207.4 640.5-3293.8"/>
    <path style="fill:#586180" d="m3620.9 1075c-730.4-1082.9-2200.4-1368.8-3283.3-638.39-1083 730.39-1368.8 2200.4-638.46 3283.3 730.36 1083 2200.4 1368.8 3283.3 638.4 1083-730.3 1368.8-2200.3 638.5-3283.3"/>
    <path style="fill:#586181" d="m3614.6 1079.2c-728-1079.5-2193.3-1364.4-3272.8-636.34-1079.5 728.04-1364.4 2193.3-636.41 3272.8 728.04 1079.5 2193.3 1364.4 3272.8 636.4 1079.5-728.1 1364.4-2193.4 636.4-3272.9"/>
    <path style="fill:#586181" d="m3608.4 1083.4c-725.7-1076-2186.4-1360-3262.4-634.3-1076.1 725.7-1360.1 2186.3-634.37 3262.4 725.71 1076 2186.4 1360 3262.4 634.3 1076.1-725.7 1360.1-2186.3 634.4-3262.4"/>
    <path style="fill:#586182" d="m3602.1 1087.7c-723.4-1072.6-2179.3-1355.7-3251.9-632.36-1072.6 723.36-1355.7 2179.4-632.32 3252s2179.3 1355.7 3251.9 632.3 1355.7-2179.3 632.3-3251.9"/>
    <path style="fill:#586182" d="m3595.9 1091.9c-721.1-1069.2-2172.3-1351.4-3241.5-630.31-1069.2 721.01-1351.3 2172.3-630.28 3241.5 721.06 1069.1 2172.3 1351.3 3241.5 630.2 1069.2-721 1351.3-2172.3 630.3-3241.4"/>
    <path style="fill:#586182" d="m3589.6 1096.1c-718.7-1065.7-2165.3-1347-3231-628.26-1065.7 718.76-1347 2165.3-628.23 3231 718.73 1065.8 2165.3 1347 3231 628.3s1347-2165.3 628.2-3231"/>
    <path style="fill:#586283" d="m3583.4 1100.3c-716.4-1062.3-2158.3-1342.6-3220.6-626.22-1062.2 716.42-1342.6 2158.3-626.19 3220.5 716.41 1062.3 2158.3 1342.7 3220.6 626.2 1062.2-716.4 1342.6-2158.2 626.2-3220.5"/>
    <path style="fill:#586183" d="m3577.1 1104.5c-714-1058.8-2151.3-1338.2-3210.1-624.18-1058.8 714.08-1338.2 2151.3-624.14 3210.1 714.08 1058.8 2151.3 1338.3 3210.1 624.2 1058.8-714.08 1338.3-2151.3 624.18-3210.1"/>
    <path style="fill:#586284" d="m3570.9 1108.7c-711.8-1055.3-2144.3-1333.9-3199.6-622.13-1055.4 711.73-1334 2144.3-622.2 3199.6 711.76 1055.4 2144.3 1333.9 3199.7 622.2 1055.3-711.8 1333.8-2144.3 622.1-3199.7"/>
    <path style="fill:#586284" d="m3564.6 1112.9c-709.4-1051.9-2137.2-1329.5-3189.1-620.08-1051.9 709.38-1329.6 2137.3-620.15 3189.2 709.42 1051.9 2137.2 1329.5 3189.2 620.1 1051.8-709.4 1329.5-2137.3 620-3189.2"/>
    <path style="fill:#576284" d="m3558.4 1117.1c-707.1-1048.4-2130.3-1325.1-3178.7-618.04-1048.5 707.14-1325.2 2130.2-618.11 3178.7 707.1 1048.4 2130.3 1325.2 3178.7 618.1 1048.5-707.1 1325.2-2130.3 618.1-3178.8"/>
    <path style="fill:#576285" d="m3552.2 1121.4c-704.8-1045.1-2123.3-1320.9-3168.3-616.1s-1320.8 2123.3-616.06 3168.3c704.77 1045 2123.3 1320.8 3168.3 616s1320.8-2123.2 616.1-3168.2"/>
    <path style="fill:#576285" d="m3545.9 1125.6c-702.4-1041.6-2116.2-1316.5-3157.8-614.05s-1316.5 2116.2-614.02 3157.8c702.45 1041.5 2116.2 1316.4 3157.8 614 1041.6-702.5 1316.5-2116.3 614-3157.8"/>
    <path style="fill:#576286" d="m3539.7 1129.8c-700.1-1038.1-2109.3-1312.1-3147.4-612.01-1038.1 700.11-1312.1 2109.2-611.97 3147.4 700.12 1038.1 2109.3 1312.1 3147.4 611.9 1038.1-700.1 1312.1-2109.2 612-3147.3"/>
    <path style="fill:#576286" d="m3533.4 1134c-697.8-1034.7-2102.2-1307.8-3136.9-609.96-1034.6 697.76-1307.7 2102.3-609.93 3136.9 697.8 1034.7 2102.2 1307.8 3136.9 610 1034.6-697.8 1307.7-2102.2 609.9-3136.9"/>
    <path style="fill:#576286" d="m3527.2 1138.2c-695.5-1031.2-2095.2-1303.4-3126.5-607.92-1031.2 695.52-1303.4 2095.2-607.88 3126.4 695.47 1031.3 2095.2 1303.4 3126.5 607.9 1031.2-695.4 1303.3-2095.2 607.9-3126.4"/>
    <path style="fill:#576287" d="m3520.9 1142.4c-693.1-1027.8-2088.2-1299-3116-605.87-1027.7 693.17-1299 2088.3-605.84 3116 693.15 1027.8 2088.2 1299.1 3115.9 605.9 1027.8-693.1 1299.1-2088.2 605.9-3116"/>
    <path style="fill:#566287" d="m3514.7 1146.6c-690.8-1024.3-2081.2-1294.6-3105.5-603.83-1024.4 690.83-1294.7 2081.2-603.89 3105.5s2081.2 1294.7 3105.5 603.9c1024.4-690.9 1294.7-2081.3 603.9-3105.6"/>
    <path style="fill:#576388" d="m3508.4 1150.8c-688.4-1020.8-2074.2-1290.3-3095-601.78-1020.9 688.48-1290.3 2074.2-601.85 3095.1 688.49 1020.9 2074.2 1290.3 3095 601.8 1020.9-688.5 1290.3-2074.2 601.8-3095.1"/>
    <path style="fill:#576388" d="m3502.2 1155c-686.2-1017.4-2067.2-1285.9-3084.6-599.74-1017.4 686.14-1286 2067.2-599.8 3084.6 686.16 1017.4 2067.2 1285.9 3084.6 599.8 1017.4-686.2 1286-2067.2 599.8-3084.7"/>
    <path style="fill:#566388" d="m3496 1159.3c-683.9-1014-2060.2-1281.6-3074.2-597.79-1014 683.89-1281.6 2060.2-597.76 3074.2 683.84 1013.9 2060.2 1281.6 3074.2 597.7 1014-683.8 1281.6-2060.2 597.8-3074.1"/>
    <path style="fill:#566389" d="m3489.7 1163.5c-681.5-1010.6-2053.2-1277.3-3063.7-595.75s-1277.2 2053.2-595.71 3063.8c681.51 1010.4 2053.2 1277.1 3063.7 595.6s1277.2-2053.2 595.7-3063.7"/>
    <path style="fill:#566389" d="m3483.5 1167.7c-679.2-1007.1-2046.2-1272.9-3053.3-593.7-1007 679.2-1272.9 2046.2-593.67 3053.2 679.19 1007.1 2046.2 1272.9 3053.3 593.7 1007-679.1 1272.9-2046.1 593.7-3053.2"/>
    <path style="fill:#56638a" d="m3477.2 1171.9c-676.8-1003.6-2039.2-1268.5-3042.8-591.66-1003.6 676.86-1268.5 2039.2-591.62 3042.8 676.86 1003.7 2039.2 1268.6 3042.8 591.7s1268.5-2039.2 591.6-3042.8"/>
    <path style="fill:#56638a" d="m3471 1176.1c-674.6-1000.2-2032.2-1264.1-3032.4-589.61-1000.1 674.51-1264.1 2032.1-589.58 3032.3 674.54 1000.2 2032.2 1264.2 3032.4 589.6 1000.1-674.5 1264.1-2032.1 589.6-3032.3"/>
    <path style="fill:#56638a" d="m3464.7 1180.3c-672.2-996.71-2025.1-1259.8-3021.8-587.57-996.77 672.17-1259.8 2025.2-587.63 3021.9 672.21 996.7 2025.1 1259.8 3021.9 587.6 996.7-672.2 1259.7-2025.2 587.5-3021.9"/>
    <path style="fill:#55638a" d="m3458.5 1184.5c-669.9-993.25-2018.2-1255.4-3011.4-585.52-993.31 669.92-1255.5 2018.1-585.59 3011.4 669.89 993.3 2018.2 1255.4 3011.4 585.6 993.3-669.9 1255.5-2018.2 585.6-3011.5"/>
    <path style="fill:#55638b" d="m3452.2 1188.7c-667.5-989.78-2011.1-1251-3000.9-583.48-989.85 667.58-1251.1 2011.2-583.54 3001s2011.1 1251.1 3000.9 583.5c989.9-667.5 1251.1-2011.1 583.5-3001"/>
    <path style="fill:#55648b" d="m3446 1193c-665.2-986.42-2004.1-1246.8-2990.5-581.53-986.39 665.23-1246.7 2004.1-581.5 2990.5 665.23 986.4 2004.1 1246.7 2990.5 581.5 986.4-665.3 1246.7-2004.2 581.5-2990.5"/>
    <path style="fill:#55638c" d="m3439.8 1197.2c-663-982.97-1997.2-1242.4-2980.1-579.49-982.93 662.89-1242.4 1997.1-579.45 2980.1 662.9 982.9 1997.2 1242.3 2980 579.4 983-662.9 1242.5-1997.1 579.6-2980"/>
    <path style="fill:#55648c" d="m3433.5 1201.4c-660.6-979.5-1990.1-1238-2969.6-577.44-979.48 660.58-1238 1990.1-577.42 2969.6 660.58 979.49 1990.1 1238 2969.6 577.43 979.48-660.59 1238-1990.1 577.42-2969.6"/>
    <path style="fill:#54648c" d="m3427.3 1205.6c-658.3-976.04-1983.1-1233.7-2959.2-575.4-976.01 658.3-1233.6 1983.1-575.37 2959.1 658.26 976.1 1983.1 1233.7 2959.2 575.4 976-658.2 1233.6-1983.1 575.4-2959.1"/>
    <path style="fill:#54648d" d="m3421 1209.8c-655.9-972.58-1976.1-1229.3-2948.7-573.36-972.55 655.96-1229.2 1976.2-573.32 2948.7 655.93 972.58 1976.1 1229.3 2948.7 573.35 972.59-655.92 1229.3-1976.1 573.36-2948.7"/>
    <path style="fill:#55648d" d="m3414.8 1214c-653.6-969.12-1969.1-1224.9-2938.2-571.31-969.19 653.61-1225 1969.1-571.37 2938.2 653.6 969.1 1969.1 1224.9 2938.2 571.3 969.14-653.6 1224.9-1969.1 571.32-2938.2"/>
    <path style="fill:#54648e" d="m3408.5 1218.2c-651.3-965.66-1962.1-1220.5-2927.7-569.26-965.73 651.26-1220.6 1962.1-569.33 2927.8 651.28 965.7 1962.1 1220.6 2927.7 569.3 965.7-651.3 1220.6-1962.1 569.3-2927.8"/>
    <path style="fill:#54648e" d="m3402.3 1222.4c-649-962.2-1955.1-1216.2-2917.3-567.22-962.27 648.92-1216.2 1955.1-567.28 2917.3 648.94 962.2 1955.1 1216.2 2917.3 567.3 962.3-649 1216.2-1955.1 567.3-2917.4"/>
    <path style="fill:#54648e" d="m3396 1226.6c-646.6-958.74-1948-1211.8-2906.8-565.17-958.8 646.57-1211.9 1948.1-565.24 2906.9 646.63 958.8 1948 1211.8 2906.8 565.2s1211.9-1948.1 565.2-2906.9"/>
    <path style="fill:#53648f" d="m3389.8 1230.9c-644.3-955.38-1941.1-1207.5-2896.4-563.23-955.34 644.33-1207.5 1941-563.19 2896.4 644.29 955.3 1941.1 1207.5 2896.4 563.2 955.4-644.3 1207.5-1941.1 563.2-2896.4"/>
    <path style="fill:#53648f" d="m3383.6 1235.1c-642-951.92-1934.1-1203.2-2886-561.18-951.88 641.98-1203.1 1934.1-561.15 2886 641.97 951.9 1934 1203.1 2886 561.1 951.9-642 1203.1-1934 561.2-2885.9"/>
    <path style="fill:#53648f" d="m3377.3 1239.3c-639.6-948.46-1927.1-1198.8-2875.5-559.14-948.42 639.64-1198.8 1927-559.1 2875.4 639.64 948.5 1927.1 1198.8 2875.5 559.2 948.4-639.7 1198.8-1927.1 559.1-2875.5"/>
    <path style="fill:#536490" d="m3371.1 1243.5c-637.4-945-1920.1-1194.4-2865.1-557.09-944.96 637.29-1194.4 1920-557.06 2865 637.32 945 1920.1 1194.4 2865.1 557.1s1194.4-1920 557.1-2865"/>
    <path style="fill:#536490" d="m3364.8 1247.7c-635-941.54-1913-1190-2854.6-555.05-941.5 634.95-1190 1913-555.02 2854.6 635 941.6 1913 1190.1 2854.6 555.1 941.5-635 1190-1913.1 555-2854.6"/>
    <path style="fill:#526491" d="m3358.6 1251.9c-632.7-938.08-1906.1-1185.7-2844.2-553-938.04 632.7-1185.6 1906-552.97 2844.1 632.67 938.1 1906.1 1185.7 2844.2 553 938-632.6 1185.6-1906 553-2844.1"/>
    <path style="fill:#526491" d="m3352.3 1256.1c-630.3-934.62-1899-1181.3-2833.6-550.96-934.68 630.36-1181.4 1899.1-551.02 2833.7 630.34 934.6 1899 1181.3 2833.6 551 934.7-630.4 1181.4-1899 551-2833.7"/>
    <path style="fill:#526491" d="m3346.1 1260.3c-628-931.15-1892-1176.9-2823.2-548.91-931.22 628.01-1177 1892-548.98 2823.2s1892 1177 2823.2 549c931.2-628.1 1177-1892.1 549-2823.3"/>
    <path style="fill:#526591" d="m3339.8 1264.6c-625.6-927.79-1885-1172.7-2812.7-546.97-927.76 625.67-1172.6 1885-546.94 2812.8 625.69 927.7 1885 1172.6 2812.7 546.9 927.75-625.69 1172.6-1885 546.93-2812.8"/>
    <path style="fill:#526492" d="m3333.6 1268.8c-623.4-924.33-1878-1168.3-2802.3-544.92-924.3 623.32-1168.2 1878-544.89 2802.3 623.36 924.3 1878 1168.2 2802.3 544.8 924.3-623.3 1168.3-1877.9 544.9-2802.2"/>
    <path style="fill:#516592" d="m3327.3 1273c-621-920.87-1870.9-1163.9-2791.8-542.88-920.84 621.08-1163.9 1871-542.84 2791.9 621.03 920.8 1870.9 1163.8 2791.8 542.8 920.8-621 1163.9-1871 542.8-2791.8"/>
    <path style="fill:#516493" d="m3321.1 1277.2c-618.7-917.41-1864-1159.5-2781.4-540.83-917.38 618.73-1159.5 1864-540.8 2781.4 618.71 917.3 1864 1159.5 2781.4 540.8s1159.5-1864 540.8-2781.4"/>
    <path style="fill:#516593" d="m3314.9 1281.4c-616.4-913.95-1857-1155.2-2771-538.79-913.92 616.39-1155.1 1857-538.76 2770.9 616.39 914 1857 1155.2 2771 538.8 913.9-616.4 1155.1-1856.9 538.8-2770.9"/>
    <path style="fill:#516593" d="m3308.6 1285.6c-614-910.49-1850-1150.8-2760.5-536.74-910.46 614.04-1150.8 1849.9-536.71 2760.4 614.06 910.5 1850 1150.8 2760.5 536.8 910.5-614.1 1150.8-1850 536.7-2760.5"/>
    <path style="fill:#506593" d="m3302.4 1289.8c-611.8-907.03-1843-1146.4-2750-534.7-907.1 611.7-1146.5 1843-534.77 2750 611.74 907.1 1843 1146.5 2750 534.7 907.1-611.7 1146.5-1842.9 534.8-2750"/>
    <path style="fill:#506594" d="m3296.1 1294c-609.4-903.57-1835.9-1142.1-2739.5-532.66-903.64 609.46-1142.1 1836-532.72 2739.6 609.4 903.6 1835.9 1142.1 2739.5 532.7s1142.1-1836 532.7-2739.6"/>
    <path style="fill:#506594" d="m3289.9 1298.2c-607.1-900.11-1829-1137.7-2729.1-530.61-900.18 607.11-1137.8 1828.9-530.68 2729.1 607.08 900.1 1829 1137.7 2729.1 530.6 900.2-607 1137.8-1828.9 530.7-2729.1"/>
    <path style="fill:#506595" d="m3283.6 1302.5c-604.7-896.75-1821.9-1133.4-2718.6-528.66-896.72 604.76-1133.4 1822-528.63 2718.7 604.75 896.7 1821.9 1133.3 2718.6 528.6 896.7-604.8 1133.4-1821.9 528.6-2718.6"/>
    <path style="fill:#506595" d="m3277.4 1306.7c-602.4-893.29-1814.9-1129-2708.2-526.62-893.26 602.42-1129 1814.9-526.59 2708.2 602.43 893.2 1814.9 1129 2708.2 526.5 893.2-602.4 1129-1814.9 526.6-2708.1"/>
    <path style="fill:#4f6595" d="m3271.1 1310.9c-600.1-889.83-1807.9-1124.7-2697.7-524.58-889.79 600.08-1124.6 1807.9-524.54 2697.7 600.1 889.9 1807.9 1124.7 2697.7 524.6s1124.6-1807.9 524.55-2697.7"/>
    <path style="fill:#4f6596" d="m3264.9 1315.1c-597.8-886.37-1800.9-1120.3-2687.3-522.53-886.33 597.73-1120.3 1800.9-522.49 2687.2 597.77 886.4 1800.9 1120.3 2687.3 522.6 886.3-597.8 1120.3-1801 522.5-2687.3"/>
    <path style="fill:#4e6596" d="m3258.6 1319.3c-595.4-882.9-1793.8-1115.9-2676.8-520.48-882.87 595.48-1115.9 1793.9-520.45 2676.8s1793.8 1116 2676.8 520.5c882.9-595.4 1115.9-1793.9 520.4-2676.8"/>
    <path style="fill:#4f6597" d="m3252.4 1323.5c-593.1-879.44-1786.9-1111.6-2666.4-518.44-879.41 593.14-1111.5 1786.9-518.41 2666.3 593.13 879.5 1786.9 1111.6 2666.4 518.5 879.4-593.1 1111.5-1786.9 518.4-2666.4"/>
    <path style="fill:#4e6596" d="m3246.2 1327.7c-590.8-875.98-1779.9-1107.2-2655.9-516.4-876.05 590.8-1107.3 1779.9-516.46 2655.9 590.8 876 1779.9 1107.2 2655.9 516.4 876.01-590.8 1107.2-1779.9 516.42-2655.9"/>
    <path style="fill:#4e6597" d="m3239.9 1331.9c-588.5-872.52-1772.9-1102.8-2645.4-514.35-872.59 588.45-1102.9 1772.8-514.42 2645.4s1772.9 1102.9 2645.4 514.4c872.6-588.5 1102.9-1772.9 514.4-2645.5"/>
    <path style="fill:#4d6597" d="m3233.7 1336.2c-586.2-869.16-1765.9-1098.6-2635-512.41-869.13 586.11-1098.5 1765.9-512.37 2635 586.15 869.1 1765.9 1098.5 2635 512.3 869.1-586.1 1098.5-1765.8 512.4-2634.9"/>
    <path style="fill:#4d6598" d="m3227.4 1340.4c-583.8-865.7-1758.8-1094.2-2624.5-510.36-865.67 583.86-1094.2 1758.9-510.33 2624.6 583.83 865.6 1758.8 1094.1 2624.5 510.3s1094.1-1758.9 510.3-2624.5"/>
    <path style="fill:#4d6598" d="m3221.2 1344.6c-581.5-862.24-1751.9-1089.8-2614.1-508.32-862.2 581.52-1089.8 1751.8-508.28 2614.1 581.49 862.2 1751.9 1089.7 2614.1 508.2 862.2-581.4 1089.8-1751.8 508.3-2614"/>
    <path style="fill:#4d6598" d="m3214.9 1348.8c-579.1-858.78-1744.8-1085.4-2603.6-506.27-858.74 579.17-1085.4 1744.9-506.24 2603.6 579.17 858.8 1744.8 1085.5 2603.6 506.3 858.7-579.2 1085.4-1744.8 506.2-2603.6"/>
    <path style="fill:#4c6599" d="m3208.7 1353c-576.9-855.32-1737.9-1081.1-2593.2-504.23-855.28 576.83-1081 1737.8-504.19 2593.1 576.84 855.3 1737.9 1081.1 2593.2 504.3 855.3-576.9 1081-1737.9 504.2-2593.2"/>
    <path style="fill:#4c6599" d="m3202.4 1357.2c-574.5-851.86-1730.8-1076.7-2582.7-502.18-851.82 574.48-1076.7 1730.8-502.15 2582.7 574.52 851.9 1730.8 1076.7 2582.8 502.2 851.7-574.5 1076.6-1730.8 502-2582.7"/>
    <path style="fill:#4c6599" d="m3196.2 1361.4c-572.2-848.4-1723.8-1072.3-2572.2-500.14-848.46 572.14-1072.4 1723.8-500.2 2572.2 572.19 848.4 1723.8 1072.4 2572.2 500.2 848.5-572.2 1072.4-1723.9 500.2-2572.3"/>
    <path style="fill:#4b659a" d="m3190 1365.6c-569.9-844.94-1716.9-1068-2561.8-498.09-845 569.89-1068 1716.8-498.16 2561.8 569.87 845 1716.9 1068 2561.8 498.1 845-569.8 1068-1716.8 498.2-2561.8"/>
    <path style="fill:#4b659a" d="m3183.7 1369.8c-567.5-841.48-1709.8-1063.6-2551.3-496.05-841.54 567.55-1063.6 1709.8-496.11 2551.4 567.54 841.4 1709.8 1063.5 2551.3 496 841.5-567.6 1063.6-1709.8 496.1-2551.4"/>
    <path style="fill:#4b669a" d="m3177.5 1374c-565.2-838.02-1702.8-1059.2-2540.9-494-838.08 565.2-1059.3 1702.8-494.07 2540.9 565.21 838.1 1702.8 1059.2 2540.9 494s1059.3-1702.8 494.1-2540.9"/>
    <path style="fill:#4a659b" d="m3171.2 1378.3c-562.9-834.66-1695.8-1054.9-2530.4-492.06-834.62 562.86-1054.9 1695.8-492.02 2530.5 562.88 834.6 1695.8 1054.9 2530.4 492s1054.9-1695.8 492-2530.4"/>
    <path style="fill:#4a659b" d="m3165 1382.5c-560.6-831.22-1688.8-1050.6-2520-490.04-831.19 560.54-1050.6 1688.8-490 2520 560.57 831.18 1688.8 1050.6 2520 489.99 831.19-560.56 1050.6-1688.8 490-2520"/>
    <path style="fill:#4a659b" d="m3165 1382.5c-560.6-831.22-1688.8-1050.6-2520-490.04-831.19 560.54-1050.6 1688.8-490 2520 560.57 831.18 1688.8 1050.6 2520 489.99 831.19-560.56 1050.6-1688.8 490-2520"/>
    <path style="fill:#4b669b" d="m3157.3 1387.7c-557.7-826.95-1680.2-1045.2-2507.1-487.52-826.92 557.72-1045.2 1680.1-487.48 2507.1 557.69 826.9 1680.2 1045.1 2507.1 487.5 826.9-557.8 1045.2-1680.2 487.5-2507.1"/>
    <path style="fill:#4c669b" d="m3149.6 1392.9c-554.8-822.68-1671.5-1039.8-2494.2-485-822.65 554.8-1039.8 1671.5-484.96 2494.2 554.81 822.6 1671.5 1039.7 2494.2 484.9 822.6-554.8 1039.8-1671.5 485-2494.1"/>
    <path style="fill:#4d679c" d="m3141.8 1398.1c-551.9-818.42-1662.8-1034.4-2481.2-482.48-818.38 551.98-1034.4 1662.8-482.44 2481.2 551.94 818.4 1662.8 1034.4 2481.2 482.46s1034.4-1662.8 482.46-2481.2"/>
    <path style="fill:#4d679c" d="m3134.1 1403.3c-549-814.15-1654.1-1029-2468.3-479.96-814.12 549.06-1029 1654.2-479.93 2468.3 549.07 814.2 1654.1 1029.1 2468.3 480 814.1-549.1 1029-1654.2 479.9-2468.3"/>
    <path style="fill:#4e689c" d="m3126.4 1408.5c-546.2-809.88-1645.5-1023.6-2455.4-477.44-809.85 546.14-1023.6 1645.5-477.41 2455.3 546.2 809.88 1645.5 1023.6 2455.4 477.44 809.87-546.2 1023.6-1645.5 477.43-2455.4"/>
    <path style="fill:#4f689c" d="m3118.7 1413.7c-543.3-805.61-1636.9-1018.2-2442.5-474.93-805.58 543.33-1018.2 1636.8-474.89 2442.4 543.32 805.6 1636.9 1018.3 2442.5 475 805.6-543.4 1018.2-1636.9 474.9-2442.5"/>
    <path style="fill:#50699e" d="m3111 1418.9c-540.5-801.35-1628.2-1012.8-2429.6-472.41-801.31 540.41-1012.8 1628.2-472.37 2429.5 540.44 801.4 1628.2 1012.9 2429.6 472.4 801.3-540.4 1012.8-1628.2 472.4-2429.5"/>
    <path style="fill:#516a9e" d="m3103.3 1424.1c-537.6-797.08-1619.6-1007.5-2416.7-469.89-797.04 537.59-1007.4 1619.5-469.86 2416.6 537.57 797.09 1619.5 1007.5 2416.6 469.9 797.09-537.57 1007.5-1619.5 469.9-2416.6"/>
    <path style="fill:#516a9e" d="m3095.5 1429.3c-534.7-792.81-1610.8-1002.1-2403.7-467.37-792.78 534.67-1002 1610.9-467.34 2403.7 534.7 792.8 1610.8 1002.1 2403.7 467.4 792.8-534.7 1002-1610.9 467.3-2403.7"/>
    <path style="fill:#526a9e" d="m3087.8 1434.5c-531.8-788.55-1602.2-996.68-2390.8-464.86-788.51 531.86-996.64 1602.2-464.82 2390.8 531.82 788.57 1602.2 996.7 2390.8 464.88 788.56-531.83 996.69-1602.2 464.87-2390.8"/>
    <path style="fill:#536b9f" d="m3080.1 1439.7c-528.9-784.27-1593.5-991.28-2377.8-462.34-784.34 528.94-991.35 1593.5-462.4 2377.8s1593.6 991.3 2377.9 462.36c784.29-528.95 991.3-1593.6 462.35-2377.8"/>
    <path style="fill:#546c9f" d="m3072.4 1444.9c-526.1-780.01-1584.9-985.89-2364.9-459.82-780.07 526.12-985.95 1584.9-459.88 2364.9s1584.9 985.9 2364.9 459.8c780.1-526 985.9-1584.8 459.9-2364.9"/>
    <path style="fill:#546c9f" d="m3064.7 1450.1c-523.2-775.74-1576.3-980.5-2352-457.3-775.81 523.2-980.56 1576.2-457.37 2352 523.2 775.77 1576.2 980.53 2352 457.33 775.77-523.19 980.52-1576.2 457.33-2352"/>
    <path style="fill:#556ca0" d="m3057 1455.3c-520.4-771.47-1567.6-975.1-2339.1-454.8-771.54 520.3-975.17 1567.6-454.85 2339.1 520.32 771.52 1567.6 975.14 2339.1 454.82 771.51-520.32 975.14-1567.6 454.82-2339.1"/>
    <path style="fill:#566da0" d="m3049.2 1460.5c-517.4-767.21-1558.9-969.71-2326.1-452.3-767.28 517.5-969.78 1558.9-452.33 2326.2 517.45 767.25 1558.9 969.75 2326.2 452.31 767.25-517.45 969.75-1558.9 452.3-2326.2"/>
    <path style="fill:#576ea1" d="m3041.5 1465.8c-514.6-763.04-1550.2-964.42-2313.2-449.8-763 514.5-964.38 1550.2-449.81 2313.2 514.57 762.99 1550.2 964.37 2313.2 449.8 762.98-514.57 964.36-1550.2 449.79-2313.2"/>
    <path style="fill:#576ea1" d="m3033.8 1471c-511.7-758.77-1541.6-959.03-2300.3-447.3-758.72 511.7-958.98 1541.6-447.28 2300.3 511.7 758.72 1541.6 958.98 2300.3 447.28 758.72-511.7 958.97-1541.6 447.27-2300.3"/>
    <path style="fill:#586ea1" d="m3026.1 1476.2c-508.9-754.5-1532.9-953.63-2287.4-444.8-754.47 508.8-953.6 1532.9-444.78 2287.4 508.82 754.46 1532.9 953.6 2287.4 444.77 754.46-508.82 953.59-1532.9 444.77-2287.4"/>
    <path style="fill:#596fa2" d="m3018.4 1481.4c-506-750.24-1524.3-948.24-2274.5-442.3-750.2 505.9-948.2 1524.3-442.26 2274.5 505.95 750.2 1524.3 948.2 2274.5 442.25 750.2-505.94 948.2-1524.3 442.26-2274.5"/>
    <path style="fill:#5a70a3" d="m3010.6 1486.6c-503-745.97-1515.6-942.85-2261.5-439.8-745.94 503.1-942.82 1515.6-439.74 2261.6 503.07 745.9 1515.6 942.8 2261.5 439.7s942.8-1515.6 439.7-2261.5"/>
    <path style="fill:#5b70a3" d="m3002.9 1491.8c-500.2-741.7-1506.9-937.46-2248.6-437.3-741.68 500.2-937.43 1507-437.23 2248.6 500.2 741.67 1506.9 937.43 2248.6 437.23 741.68-500.2 937.43-1506.9 437.23-2248.6"/>
    <path style="fill:#5b71a3" d="m2995.2 1497c-497.3-737.43-1498.3-932.06-2235.7-434.7-737.4 497.3-932.03 1498.2-434.7 2235.7 497.32 737.4 1498.3 932 2235.7 434.7s932-1498.3 434.7-2235.7"/>
    <path style="fill:#5c71a4" d="m2987.5 1502.2c-494.5-733.16-1489.6-926.67-2222.8-432.2-733.13 494.4-926.64 1489.6-432.19 2222.8 494.45 733.1 1489.6 926.6 2222.8 432.2 733.1-494.5 926.6-1489.7 432.2-2222.8"/>
    <path style="fill:#5d72a4" d="m2979.8 1507.4c-491.6-728.9-1481-921.28-2209.9-429.7-728.86 491.6-921.24 1481-429.67 2209.8 491.58 728.89 1481 921.27 2209.8 429.69 728.88-491.57 921.26-1481 429.69-2209.8"/>
    <path style="fill:#5e72a4" d="m2972 1512.6c-488.6-724.63-1472.2-915.88-2196.9-427.2-724.63 488.7-915.88 1472.3-427.18 2196.9 488.7 724.62 1472.3 915.87 2196.9 427.18 724.63-488.7 915.88-1472.3 427.18-2196.9"/>
    <path style="fill:#5f73a4" d="m2964.3 1517.8c-485.8-720.36-1463.6-910.49-2184-424.7-720.36 485.83-910.49 1463.6-424.66 2184 485.82 720.36 1463.6 910.5 2184 424.67 720.36-485.82 910.49-1463.6 424.66-2184"/>
    <path style="fill:#5f74a5" d="m2956.6 1523c-482.9-716.09-1455-905.1-2171.1-422.2-716.06 483-905.07 1455-422.11 2171.1 482.95 716.1 1455 905.1 2171.1 422.2 716.1-483 905.1-1455 422.1-2171.1"/>
    <path style="fill:#6074a5" d="m2948.9 1528.2c-480.1-711.83-1446.3-899.7-2158.2-419.6-711.79 480-899.67 1446.3-419.6 2158.1 480.08 711.9 1446.3 899.7 2158.2 419.7 711.8-480.1 899.7-1446.4 419.6-2158.2"/>
    <path style="fill:#6174a6" d="m2941.2 1533.4c-477.2-707.56-1437.7-894.31-2145.2-417.1-707.62 477.2-894.38 1437.7-417.18 2145.2 477.2 707.57 1437.7 894.32 2145.2 417.12 707.58-477.19 894.33-1437.6 417.13-2145.2"/>
    <path style="fill:#6275a6" d="m2933.5 1538.6c-474.4-703.3-1429-888.92-2132.4-414.6-703.26 474.3-888.89 1429-414.56 2132.3 474.33 703.32 1429 888.94 2132.3 414.62 703.31-474.33 888.94-1429 414.61-2132.3"/>
    <path style="fill:#6276a7" d="m2925.7 1543.8c-471.4-699.02-1420.3-883.53-2119.3-412.1-699.09 471.5-883.6 1420.4-412.14 2119.4 471.45 699.05 1420.3 883.55 2119.4 412.1 699.05-471.45 883.56-1420.3 412.1-2119.4"/>
    <path style="fill:#6376a7" d="m2918 1549c-468.6-694.76-1411.6-878.14-2106.4-409.6-694.82 468.6-878.2 1411.7-409.62 2106.5 468.57 694.8 1411.6 878.2 2106.4 409.6s878.2-1411.7 409.6-2106.5"/>
    <path style="fill:#6477a8" d="m2910.3 1554.2c-465.7-690.49-1403-872.74-2093.5-407-690.55 465.7-872.81 1403-407.11 2093.5 465.7 690.52 1403 872.78 2093.5 407.07 690.52-465.7 872.78-1403 407.08-2093.5"/>
    <path style="fill:#6578a8" d="m2902.6 1559.4c-462.8-686.22-1394.4-867.35-2080.6-404.5-686.29 462.8-867.42 1394.3-404.59 2080.6 462.83 686.26 1394.4 867.39 2080.6 404.56 686.26-462.82 867.39-1394.4 404.56-2080.6"/>
    <path style="fill:#6678a9" d="m2894.9 1564.6c-460-681.96-1385.7-861.96-2067.7-402s-862 1385.7-402.05 2067.7 1385.7 862 2067.7 402.05c682-459.96 862-1385.7 402.05-2067.7"/>
    <path style="fill:#6779a9" d="m2887.2 1569.8c-457.1-677.69-1377.1-856.57-2054.8-399.5-677.75 457.1-856.63 1377.1-399.55 2054.8s1377 856.6 2054.8 399.5 856.6-1377 399.6-2054.8"/>
    <path style="fill:#6779a9" d="m2879.4 1575c-454.2-673.42-1368.3-851.17-2041.8-397-673.49 454.2-851.24 1368.4-397.03 2041.9 454.2 673.5 1368.3 851.2 2041.8 397s851.2-1368.4 397-2041.9"/>
    <path style="fill:#687aaa" d="m2871.7 1580.3c-451.3-669.25-1359.7-845.88-2028.9-394.5-669.22 451.3-845.85 1359.7-394.52 2028.9s1359.7 845.8 2028.9 394.5 845.8-1359.7 394.5-2028.9"/>
    <path style="fill:#697aaa" d="m2864 1585.5c-448.4-664.98-1351-840.49-2016-392-664.95 448.4-840.45 1351-392 2016 448.45 664.94 1351 840.45 2016 391.99 664.95-448.45 840.45-1351 392-2016"/>
    <path style="fill:#6a7baa" d="m2856.3 1590.7c-445.6-660.72-1342.4-835.1-2003.1-389.5-660.68 445.6-835.06 1342.4-389.48 2003.1s1342.4 835 2003.1 389.5c660.7-445.6 835.1-1342.4 389.5-2003.1"/>
    <path style="fill:#6b7cab" d="m2848.6 1595.9c-442.7-656.45-1333.8-829.7-1990.2-387-656.41 442.7-829.67 1333.7-386.96 1990.1 442.7 656.5 1333.8 829.7 1990.2 387s829.7-1333.7 387-1990.1"/>
    <path style="fill:#6b7cab" d="m2840.8 1601.1c-439.8-652.18-1325-824.31-1977.2-384.5-652.15 439.8-824.28 1325.1-384.45 1977.2 439.83 652.17 1325.1 824.29 1977.2 384.46 652.16-439.83 824.29-1325.1 384.46-1977.2"/>
    <path style="fill:#6c7cac" d="m2833.1 1606.3c-436.9-647.91-1316.4-818.92-1964.3-382-647.88 437-818.88 1316.5-381.93 1964.3 436.95 647.9 1316.4 818.91 1964.3 381.95 647.9-436.95 818.9-1316.4 381.95-1964.3"/>
    <path style="fill:#6d7dac" d="m2825.4 1611.5c-434.1-643.64-1307.7-813.52-1951.4-379.5-643.61 434.1-813.49 1307.8-379.41 1951.4 434.08 643.64 1307.8 813.52 1951.4 379.44 643.63-434.08 813.51-1307.8 379.43-1951.4"/>
    <path style="fill:#6e7eac" d="m2817.7 1616.7c-431.2-639.38-1299.1-808.13-1938.5-376.9-639.34 431.2-808.1 1299.1-376.89 1938.4 431.21 639.4 1299.1 808.2 1938.5 377 639.3-431.2 808.1-1299.1 376.9-1938.5"/>
    <path style="fill:#6f7fad" d="m2810 1621.9c-428.4-635.11-1290.4-802.74-1925.6-374.4-635.08 428.3-802.7 1290.4-374.37 1925.5s1290.4 802.8 1925.6 374.4c635.1-428.3 802.7-1290.4 374.4-1925.5"/>
    <path style="fill:#707fae" d="m2802.3 1627.1c-425.5-630.84-1281.8-797.35-1912.7-371.9-630.81 425.5-797.32 1281.8-371.86 1912.6 425.46 630.86 1281.8 797.36 1912.6 371.9 630.85-425.45 797.35-1281.8 371.9-1912.6"/>
    <path style="fill:#7180ae" d="m2794.5 1632.3c-422.5-626.6-1273.1-791.95-1899.7-369.4-626.54 422.6-791.92 1273.1-369.34 1899.7s1273.1 792 1899.7 369.4c626.5-422.6 791.9-1273.1 369.3-1899.7"/>
    <path style="fill:#7181ae" d="m2786.8 1637.5c-419.7-622.3-1264.4-786.56-1886.8-366.9-622.27 419.8-786.53 1264.5-366.82 1886.8 419.71 622.33 1264.4 786.58 1886.8 366.88 622.32-419.71 786.58-1264.4 366.87-1886.8"/>
    <path style="fill:#7281ae" d="m2779.1 1642.7c-416.8-618-1255.8-781.17-1873.8-364.3-618.11 416.8-781.23 1255.8-364.4 1873.8 416.83 618.1 1255.8 781.2 1873.9 364.4 618-416.9 781.1-1255.8 364.3-1873.9"/>
    <path style="fill:#7382af" d="m2771.4 1647.9c-414-613.8-1247.1-775.78-1860.9-361.8-613.84 413.9-775.84 1247.1-361.88 1860.9s1247.1 775.81 1860.9 361.85 775.8-1247.1 361.84-1860.9"/>
    <path style="fill:#7483b0" d="m2763.7 1653.1c-411.1-609.5-1238.5-770.38-1848-359.3-609.57 411.1-770.45 1238.5-359.37 1848 411.08 609.54 1238.5 770.41 1848 359.33 609.53-411.08 770.41-1238.5 359.33-1848"/>
    <path style="fill:#7583b0" d="m2756 1658.3c-408.3-605.2-1229.9-764.99-1835.1-356.8-605.27 408.21-765.03 1229.8-356.82 1835.1 408.21 605.28 1229.8 765.03 1835.1 356.82 605.27-408.2 765.03-1229.8 356.82-1835.1"/>
    <path style="fill:#7583b0" d="m2748.2 1663.5c-405.3-601-1221.1-759.6-1822.1-354.3-601.03 405.4-759.66 1221.2-354.33 1822.2 405.34 601.01 1221.1 759.64 1822.2 354.31 601.01-405.34 759.64-1221.2 354.3-1822.2"/>
    <path style="fill:#7684b1" d="m2740.5 1668.8c-402.5-596.8-1212.5-754.3-1809.2-351.8-596.75 402.46-754.25 1212.5-351.79 1809.2 402.46 596.75 1212.5 754.26 1809.2 351.8 596.75-402.46 754.25-1212.5 351.79-1809.2"/>
    <path style="fill:#7785b1" d="m2732.8 1674c-399.6-592.5-1203.8-748.91-1796.3-349.3-592.5 399.5-748.88 1203.8-349.29 1796.3 399.58 592.5 1203.8 748.8 1796.3 349.3 592.5-399.6 748.9-1203.9 349.3-1796.3"/>
    <path style="fill:#7885b1" d="m2725.1 1679.2c-396.7-588.3-1195.2-743.52-1783.4-346.8-588.23 396.7-743.48 1195.2-346.78 1783.4 396.71 588.2 1195.2 743.4 1783.4 346.7 588.22-396.7 743.48-1195.2 346.77-1783.4"/>
    <path style="fill:#7986b2" d="m2717.4 1684.4c-393.9-584-1186.5-738.13-1770.5-344.3-583.96 393.83-738.09 1186.5-344.26 1770.5 393.84 583.96 1186.5 738.09 1770.5 344.25 583.96-393.83 738.09-1186.5 344.26-1770.5"/>
    <path style="fill:#7a87b3" d="m2709.6 1689.6c-390.9-579.7-1177.8-732.74-1757.5-341.8-579.7 391-732.7 1177.9-341.74 1757.6 390.94 579.7 1177.8 732.7 1757.5 341.7s732.7-1177.8 341.7-1757.5"/>
    <path style="fill:#7b88b4" d="m2701.9 1694.8c-388.1-575.5-1169.1-727.34-1744.6-339.3-575.43 388.1-727.31 1169.2-339.22 1744.7 388.12 575.4 1169.1 727.3 1744.6 339.2 575.4-388.1 727.3-1169.2 339.2-1744.6"/>
    <path style="fill:#7c88b4" d="m2694.2 1700c-385.2-571.2-1160.5-721.95-1731.7-336.7-571.16 385.2-721.91 1160.5-336.7 1731.7 385.2 571.1 1160.5 721.9 1731.7 336.7s721.9-1160.5 336.7-1731.7"/>
    <path style="fill:#7c89b4" d="m2686.5 1705.2c-382.3-566.9-1151.9-716.56-1718.8-334.2-566.89 382.3-716.52 1151.8-334.19 1718.8 382.34 566.91 1151.9 716.54 1718.8 334.2 566.91-382.33 716.54-1151.9 334.21-1718.8"/>
    <path style="fill:#7d8ab5" d="m2678.8 1710.4c-379.5-562.7-1143.2-711.16-1705.9-331.7-562.63 379.5-711.13 1143.2-331.67 1705.8 379.46 562.65 1143.2 711.16 1705.8 331.69 562.65-379.46 711.15-1143.2 331.69-1705.8"/>
    <path style="fill:#7e8bb5" d="m2671 1715.6c-376.5-558.4-1134.5-705.8-1692.9-329.2-558.36 376.6-705.74 1134.6-329.15 1692.9 376.55 558.4 1134.6 705.8 1693 329.2 558.3-376.6 705.6-1134.5 329-1692.9"/>
    <path style="fill:#7f8bb5" d="m2663.3 1720.8c-373.7-554.1-1125.9-700.4-1680-326.7-554.12 373.71-700.38 1125.9-326.66 1680 373.71 554.12 1125.9 700.38 1680 326.67 554.12-373.71 700.37-1125.9 326.66-1680"/>
    <path style="fill:#808cb6" d="m2655.6 1726c-370.8-549.9-1117.2-695-1667.1-324.2-549.82 370.9-694.95 1117.3-324.11 1667.1 370.81 549.9 1117.2 695 1667.1 324.2 549.8-370.9 694.9-1117.2 324.1-1667.1"/>
    <path style="fill:#808db6" d="m2647.9 1731.2c-367.96-545.6-1108.6-689.6-1654.2-321.64s-689.6 1108.6-321.64 1654.2 1108.6 689.6 1654.2 321.64 689.6-1108.6 321.64-1654.2"/>
    <path style="fill:#818db6" d="m2640.2 1736.4c-365.1-541.3-1099.9-684.2-1641.2-319.1-541.39 365.1-684.27 1099.9-319.18 1641.2 365.09 541.34 1099.9 684.21 1641.2 319.12 541.34-365.08 684.22-1099.9 319.13-1641.2"/>
    <path style="fill:#828db7" d="m2632.5 1741.6c-362.3-537-1091.3-678.8-1628.3-316.6-537.12 362.2-678.87 1091.2-316.66 1628.3 362.26 537.1 1091.3 678.8 1628.3 316.6 537.1-362.2 678.9-1091.2 316.7-1628.3"/>
    <path style="fill:#838eb7" d="m2624.7 1746.8c-359.3-532.8-1082.5-673.4-1615.3-314.1-532.85 359.4-673.48 1082.6-314.14 1615.4 359.33 532.81 1082.6 673.44 1615.4 314.1 532.81-359.34 673.44-1082.6 314.1-1615.4"/>
    <path style="fill:#848fb8" d="m2617 1752c-356.4-528.5-1073.9-668-1602.4-311.6-528.58 356.5-668.09 1074-311.62 1602.5 356.46 528.55 1073.9 668.06 1602.5 311.59 528.54-356.46 668.05-1073.9 311.59-1602.5"/>
    <path style="fill:#8590b9" d="m2609.3 1757.2c-353.6-524.2-1065.3-662.6-1589.5-309-524.32 353.6-662.7 1065.2-309.11 1589.5 353.59 524.28 1065.3 662.66 1589.5 309.07 524.29-353.58 662.66-1065.2 309.08-1589.5"/>
    <path style="fill:#8691b9" d="m2601.6 1762.4c-350.7-520-1056.6-657.2-1576.6-306.5-520.05 350.7-657.3 1056.6-306.59 1576.6 350.69 520 1056.6 657.3 1576.6 306.5 520-350.7 657.3-1056.5 306.6-1576.6"/>
    <path style="fill:#8792ba" d="m2593.9 1767.6c-347.9-515.7-1048-651.8-1563.7-304-515.78 347.8-651.91 1047.9-304.07 1563.7 347.84 515.76 1047.9 651.89 1563.7 304.05 515.76-347.84 651.89-1047.9 304.05-1563.7"/>
    <path style="fill:#8892bb" d="m2586.2 1772.8c-344.96-511.5-1039.3-646.5-1550.8-301.54-511.49 344.97-646.5 1039.3-301.53 1550.8 344.96 511.5 1039.3 646.5 1550.8 301.54 511.49-344.96 646.5-1039.3 301.53-1550.8"/>
    <path style="fill:#8993bb" d="m2578.4 1778c-342-507.2-1030.6-641.1-1537.8-299-507.25 342.1-641.13 1030.6-299.04 1537.9 342.04 507.2 1030.6 641.1 1537.8 299s641.1-1030.6 299-1537.9"/>
    <path style="fill:#8993bb" d="m2570.7 1783.3c-339.2-503-1021.9-635.8-1524.9-296.5-502.98 339.2-635.73 1021.9-296.52 1524.9 339.22 502.9 1021.9 635.7 1524.9 296.5s635.7-1022 296.5-1524.9"/>
    <path style="fill:#8a94bb" d="m2563 1788.5c-336.34-498.71-1013.3-630.33-1512-294-498.71 336.34-630.34 1013.3-294 1512 336.34 498.72 1013.3 630.34 1512 294 498.71-336.33 630.34-1013.3 294-1512"/>
    <path style="fill:#8b95bc" d="m2555.3 1793.7c-333.5-494.5-1004.7-625-1499.1-291.5-494.45 333.4-624.95 1004.6-291.48 1499.1 333.48 494.4 1004.7 624.9 1499.1 291.5 494.4-333.5 625-1004.7 291.5-1499.1"/>
    <path style="fill:#8c95bc" d="m2547.6 1798.9c-330.6-490.2-996-619.6-1486.2-289-490.17 330.6-619.55 996-288.96 1486.1 330.59 490.19 995.97 619.57 1486.2 288.98 490.19-330.59 619.57-995.97 288.97-1486.2"/>
    <path style="fill:#8d96bd" d="m2539.8 1804.1c-327.7-485.9-987.3-614.2-1473.2-286.5-485.91 327.7-614.16 987.3-286.45 1473.2 327.75 486 987.35 614.2 1473.2 286.5 485.9-327.7 614.2-987.3 286.4-1473.2"/>
    <path style="fill:#8e97bd" d="m2532.1 1809.3c-324.84-481.66-978.65-608.79-1460.3-283.95-481.66 324.84-608.79 978.64-283.95 1460.3s978.65 608.79 1460.3 283.95c481.66-324.84 608.79-978.64 283.95-1460.3"/>
    <path style="fill:#8f97be" d="m2524.4 1814.5c-321.97-477.4-969.99-603.4-1447.4-281.44-477.4 321.97-603.4 969.99-281.43 1447.4 321.97 477.4 969.99 603.4 1447.4 281.44 477.4-321.97 603.4-969.99 281.43-1447.4"/>
    <path style="fill:#8f98be" d="m2516.7 1819.7c-319.1-473.1-961.3-598-1434.5-278.9-473.11 319.1-597.98 961.3-278.89 1434.4 319.09 473.14 961.32 598.02 1434.5 278.93 473.14-319.09 598.01-961.33 278.92-1434.5"/>
    <path style="fill:#919abf" d="m2509 1824.9c-316.21-468.87-952.66-592.63-1421.5-276.41-468.87 316.22-592.62 952.67-276.4 1421.5 316.21 468.87 952.66 592.63 1421.5 276.41 468.87-316.22 592.62-952.67 276.4-1421.5"/>
    <path style="fill:#929bbf" d="m2501.3 1830.1c-313.35-464.61-944.01-587.24-1408.6-273.9-464.61 313.34-587.24 944-273.9 1408.6 313.35 464.62 944.01 587.25 1408.6 273.9 464.61-313.34 587.24-944 273.9-1408.6"/>
    <path style="fill:#939bc0" d="m2493.5 1835.3c-310.4-460.3-935.3-581.8-1395.7-271.4-460.3 310.5-581.8 935.4-271.34 1395.7 310.44 460.4 935.34 581.9 1395.7 271.4 460.3-310.5 581.8-935.3 271.3-1395.7"/>
    <path style="fill:#939cc1" d="m2485.8 1840.5c-307.59-456.09-926.68-576.47-1382.8-268.88-456.08 307.6-576.46 926.69-268.87 1382.8 307.59 456.09 926.68 576.47 1382.8 268.88 456.09-307.6 576.46-926.69 268.87-1382.8"/>
    <path style="fill:#949dc1" d="m2478.1 1845.7c-304.7-451.8-918-571.1-1369.8-266.3-451.87 304.7-571.12 918-266.4 1369.8 304.72 451.83 918.02 571.08 1369.9 266.36 451.82-304.72 571.07-918.02 266.35-1369.8"/>
    <path style="fill:#959dc1" d="m2470.4 1850.9c-301.9-447.5-909.4-565.7-1356.9-263.8-447.6 301.8-565.73 909.3-263.88 1356.9 301.84 447.57 909.36 565.7 1356.9 263.85 447.56-301.84 565.69-909.36 263.84-1356.9"/>
    <path style="fill:#969ec2" d="m2462.7 1856.1c-298.97-443.3-900.71-560.3-1344-261.33-443.3 298.97-560.31 900.7-261.34 1344s900.71 560.3 1344 261.33c443.3-298.97 560.31-900.7 261.34-1344"/>
    <path style="fill:#979fc2" d="m2455 1861.3c-296.1-439-892.1-554.9-1331.1-258.8-439.06 296.1-554.94 892.1-258.85 1331.1 296.09 439.04 892.04 554.92 1331.1 258.82 439.03-296.09 554.91-892.04 258.82-1331.1"/>
    <path style="fill:#98a0c3" d="m2447.2 1866.5c-293.22-434.77-883.38-549.52-1318.2-256.31-434.78 293.22-549.53 883.39-256.31 1318.2 293.22 434.77 883.38 549.52 1318.2 256.31 434.78-293.22 549.53-883.38 256.31-1318.2"/>
    <path style="fill:#99a0c3" d="m2439.5 1871.8c-290.34-430.52-874.72-544.14-1305.2-253.8-430.51 290.35-544.14 874.72-253.79 1305.2 290.34 430.52 874.72 544.14 1305.2 253.8 430.51-290.34 544.14-874.72 253.79-1305.2"/>
    <path style="fill:#9aa1c4" d="m2431.8 1877c-287.5-426.3-866.1-538.8-1292.3-251.3-426.26 287.4-538.77 866-251.29 1292.3 287.47 426.25 866.06 538.75 1292.3 251.28 426.25-287.47 538.76-866.06 251.28-1292.3"/>
    <path style="fill:#9aa2c4" d="m2424.1 1882.2c-284.6-421.99-857.4-533.36-1279.4-248.77-421.99 284.59-533.36 857.4-248.77 1279.4 284.6 421.99 857.4 533.37 1279.4 248.77 421.99-284.59 533.36-857.4 248.77-1279.4"/>
    <path style="fill:#9ca3c5" d="m2416.4 1887.4c-281.8-417.8-848.8-528-1266.5-246.3-417.72 281.7-527.98 848.7-246.26 1266.5 281.72 417.72 848.74 527.98 1266.5 246.25 417.72-281.71 527.98-848.73 246.26-1266.5"/>
    <path style="fill:#9da3c5" d="m2408.6 1892.6c-278.8-413.5-840-522.6-1253.5-243.8-413.46 278.9-522.59 840.1-243.74 1253.6 278.85 413.46 840.08 522.59 1253.5 243.75 413.46-278.85 522.59-840.08 243.74-1253.5"/>
    <path style="fill:#9ea4c6" d="m2400.9 1897.8c-275.97-409.2-831.41-517.2-1240.6-241.23-409.2 275.97-517.2 831.42-241.23 1240.6 275.97 409.2 831.41 517.2 1240.6 241.23 409.2-275.97 517.2-831.42 241.23-1240.6"/>
    <path style="fill:#9fa5c7" d="m2393.2 1903c-273.1-404.94-822.76-511.82-1227.7-238.72-404.93 273.1-511.81 822.76-238.71 1227.7 273.09 404.94 822.75 511.82 1227.7 238.72 404.93-273.1 511.81-822.76 238.72-1227.7"/>
    <path style="fill:#9fa5c7" d="m2385.5 1908.2c-270.22-400.67-814.1-506.42-1214.8-236.2-400.68 270.22-506.43 814.09-236.21 1214.8 270.22 400.67 814.1 506.42 1214.8 236.2 400.68-270.22 506.43-814.09 236.21-1214.8"/>
    <path style="fill:#a0a6c7" d="m2377.8 1913.4c-267.4-396.4-805.5-501-1201.9-233.7-396.39 267.3-501.02 805.4-233.67 1201.8 267.35 396.41 805.44 501.04 1201.8 233.69 396.41-267.34 501.04-805.43 233.69-1201.8"/>
    <path style="fill:#a1a7c8" d="m2370 1918.6c-264.47-392.14-796.77-495.65-1188.9-231.18-392.15 264.48-495.65 796.78-231.18 1188.9 264.47 392.15 796.77 495.65 1188.9 231.18 392.15-264.48 495.65-796.78 231.18-1188.9"/>
    <path style="fill:#a2a8c9" d="m2362.3 1923.8c-261.6-387.89-788.11-490.26-1176-228.67-387.88 261.6-490.26 788.12-228.66 1176 261.6 387.89 788.11 490.26 1176 228.67 387.88-261.6 490.26-788.11 228.66-1176"/>
    <path style="fill:#a3a9c9" d="m2354.6 1929c-258.7-383.6-779.4-484.9-1163.1-226.2-383.59 258.8-484.84 779.5-226.11 1163.1 258.71 383.7 779.41 484.9 1163.1 226.2 383.6-258.7 484.8-779.5 226.1-1163.1"/>
    <path style="fill:#a4aac9" d="m2346.9 1934.2c-255.85-379.36-770.79-479.49-1150.2-223.64-379.36 255.85-479.49 770.79-223.64 1150.2 255.85 379.37 770.79 479.49 1150.2 223.64 379.36-255.84 479.49-770.79 223.64-1150.2"/>
    <path style="fill:#a5abc9" d="m2339.2 1939.4c-252.97-375.09-762.13-474.1-1137.2-221.12-375.1 252.97-474.1 762.13-221.13 1137.2 252.97 375.1 762.13 474.1 1137.2 221.12 375.1-252.97 474.1-762.13 221.13-1137.2"/>
    <path style="fill:#a6abca" d="m2331.5 1944.6c-250.1-370.8-753.5-468.7-1124.3-218.6-370.88 250.1-468.76 753.5-218.66 1124.3 250.1 370.84 753.47 468.71 1124.3 218.62 370.83-250.1 468.71-753.47 218.61-1124.3"/>
    <path style="fill:#a7accb" d="m2323.7 1949.8c-247.22-366.57-744.81-463.32-1111.4-216.1-366.58 247.23-463.33 744.82-216.1 1111.4 247.22 366.57 744.81 463.32 1111.4 216.1 366.57-247.23 463.33-744.81 216.1-1111.4"/>
    <path style="fill:#a8adcc" d="m2316 1955c-244.35-362.31-736.15-457.94-1098.5-213.59-362.31 244.35-457.94 736.15-213.59 1098.5 244.35 362.31 736.16 457.94 1098.5 213.59 362.31-244.35 457.94-736.15 213.59-1098.5"/>
    <path style="fill:#a9aecc" d="m2308.3 1960.2c-241.47-358.05-727.49-452.55-1085.5-211.07-358.05 241.47-452.55 727.49-211.08 1085.5 241.47 358.05 727.49 452.55 1085.5 211.07 358.05-241.47 452.55-727.48 211.08-1085.5"/>
    <path style="fill:#aaafcd" d="m2300.6 1965.4c-238.6-353.78-718.83-447.16-1072.6-208.56-353.78 238.6-447.16 718.83-208.56 1072.6 238.6 353.79 718.83 447.17 1072.6 208.56 353.78-238.59 447.16-718.82 208.56-1072.6"/>
    <path style="fill:#abb0cd" d="m2292.9 1970.6c-235.72-349.52-710.17-441.77-1059.7-206.05-349.52 235.73-441.77 710.17-206.05 1059.7 235.72 349.52 710.17 441.77 1059.7 206.05 349.52-235.73 441.77-710.17 206.05-1059.7"/>
    <path style="fill:#acb1ce" d="m2285.2 1975.8c-232.85-345.26-701.51-436.39-1046.8-203.54-345.26 232.85-436.38 701.51-203.53 1046.8 232.85 345.26 701.51 436.39 1046.8 203.54 345.26-232.85 436.38-701.51 203.53-1046.8"/>
    <path style="fill:#adb2ce" d="m2277.4 1981c-229.98-340.99-692.85-431-1033.8-201.02-341 229.98-431 692.85-201.03 1033.8 229.98 341 692.85 431 1033.8 201.02 341-229.97 431-692.85 201.03-1033.8"/>
    <path style="fill:#aeb2cf" d="m2269.7 1986.3c-227.1-336.74-684.19-425.61-1020.9-198.51-336.73 227.1-425.61 684.18-198.51 1020.9 227.1 336.74 684.19 425.62 1020.9 198.51 336.73-227.1 425.61-684.18 198.51-1020.9"/>
    <path style="fill:#afb3cf" d="m2262 1991.5c-224.23-332.47-675.53-420.22-1008-196-332.47 224.23-420.23 675.53-196 1008 224.23 332.48 675.53 420.23 1008 196 332.47-224.22 420.23-675.52 196-1008"/>
    <path style="fill:#afb4d0" d="m2254.3 1996.7c-221.35-328.21-666.87-414.84-995.08-193.49-328.21 221.36-414.83 666.87-193.48 995.08s666.87 414.84 995.08 193.49 414.83-666.87 193.48-995.08"/>
    <path style="fill:#b0b4d0" d="m2246.6 2001.9c-218.47-323.95-658.2-409.45-982.15-190.98-323.95 218.48-409.45 658.21-190.97 982.15 218.47 323.95 658.2 409.46 982.15 190.98s409.45-658.21 190.97-982.15"/>
    <path style="fill:#b1b5d1" d="m2238.8 2007.1c-215.6-319.69-649.55-404.06-969.24-188.46-319.68 215.6-404.06 649.54-188.46 969.23s649.55 404.06 969.24 188.46c319.68-215.6 404.06-649.54 188.46-969.23"/>
    <path style="fill:#b2b6d1" d="m2231.1 2012.3c-212.73-315.43-640.88-398.68-956.31-185.95-315.42 212.73-398.68 640.88-185.95 956.3 212.73 315.43 640.88 398.68 956.31 185.95 315.43-212.72 398.68-640.88 185.95-956.3"/>
    <path style="fill:#b3b7d2" d="m2223.4 2017.5c-209.85-311.16-632.23-393.29-943.39-183.44-311.16 209.86-393.28 632.23-183.43 943.39s632.23 393.29 943.39 183.44c311.16-209.86 393.28-632.23 183.43-943.39"/>
    <path style="fill:#b5b8d2" d="m2215.7 2022.7c-206.98-306.9-623.56-387.9-930.46-180.93-306.9 206.98-387.9 623.57-180.92 930.46 206.98 306.9 623.56 387.91 930.46 180.93s387.9-623.57 180.92-930.46"/>
    <path style="fill:#b6b9d4" d="m2208 2027.9c-204.1-302.63-614.9-382.51-917.54-178.41-302.63 204.1-382.51 614.9-178.4 917.54 204.1 302.64 614.9 382.51 917.54 178.41 302.63-204.1 382.51-614.9 178.4-917.54"/>
    <path style="fill:#b7bad4" d="m2200.3 2033.1c-201.23-298.38-606.24-377.13-904.62-175.9-298.37 201.23-377.12 606.24-175.9 904.61 201.23 298.38 606.24 377.13 904.62 175.9 298.37-201.22 377.12-606.24 175.9-904.61"/>
    <path style="fill:#b8bbd4" d="m2192.5 2038.3c-198.36-294.11-597.58-371.74-891.69-173.38-294.11 198.35-371.74 597.58-173.39 891.69 198.36 294.11 597.58 371.74 891.69 173.38 294.11-198.35 371.74-597.58 173.39-891.69"/>
    <path style="fill:#b9bbd4" d="m2184.8 2043.5c-195.48-289.85-588.92-366.36-878.77-170.88-289.85 195.49-366.35 588.93-170.87 878.77 195.48 289.85 588.92 366.36 878.77 170.88 289.85-195.49 366.35-588.93 170.87-878.77"/>
    <path style="fill:#b9bdd6" d="m2177.1 2048.7c-192.6-285.58-580.26-360.96-865.84-168.36-285.59 192.61-360.97 580.27-168.36 865.85 192.6 285.59 580.26 360.96 865.84 168.36 285.59-192.61 360.97-580.26 168.36-865.85"/>
    <path style="fill:#babed6" d="m2169.4 2053.9c-189.72-281.33-571.59-355.58-852.92-165.85-281.32 189.73-355.57 571.6-165.84 852.92 189.73 281.33 571.59 355.58 852.92 165.85 281.32-189.73 355.57-571.6 165.84-852.92"/>
    <path style="fill:#bbbed6" d="m2161.7 2059.1c-186.86-277.06-562.94-350.18-840-163.33-277.06 186.86-350.19 562.94-163.34 840 186.86 277.06 562.94 350.19 840 163.33 277.06-186.85 350.19-562.93 163.34-840"/>
    <path style="fill:#bcbfd6" d="m2154 2064.3c-183.98-272.8-554.28-344.8-827.08-160.82s-344.8 554.28-160.82 827.07c183.98 272.8 554.28 344.8 827.08 160.82s344.8-554.28 160.82-827.07"/>
    <path style="fill:#bdc0d8" d="m2146.2 2069.5c-181.1-268.53-545.62-339.41-814.15-158.31-268.54 181.11-339.42 545.63-158.31 814.16 181.11 268.54 545.62 339.41 814.15 158.31 268.54-181.11 339.42-545.62 158.31-814.16"/>
    <path style="fill:#bec1d8" d="m2138.5 2074.8c-178.23-264.28-536.96-334.03-801.23-155.8s-334.02 536.96-155.79 801.23c178.23 264.28 536.96 334.03 801.23 155.8s334.02-536.96 155.79-801.23"/>
    <path style="fill:#bfc1d8" d="m2130.8 2080c-175.35-260.01-528.29-328.63-788.3-153.28-260.01 175.36-328.64 528.3-153.28 788.31 175.35 260.01 528.29 328.64 788.3 153.28 260.01-175.35 328.64-528.3 153.28-788.31"/>
    <path style="fill:#c0c2d9" d="m2123.1 2085.2c-172.48-255.75-519.64-323.25-775.39-150.77s-323.25 519.63-150.77 775.38 519.64 323.25 775.39 150.77 323.25-519.63 150.77-775.38"/>
    <path style="fill:#c2c4db" d="m2115.4 2090.4c-169.61-251.48-510.98-317.86-762.46-148.25-251.49 169.6-317.86 510.98-148.26 762.46 169.61 251.48 510.98 317.86 762.46 148.25 251.49-169.6 317.86-510.97 148.26-762.46"/>
    <path style="fill:#c3c5db" d="m2107.6 2095.6c-166.73-247.23-502.32-312.48-749.54-145.75s-312.47 502.32-145.74 749.54c166.73 247.23 502.32 312.48 749.54 145.75s312.47-502.32 145.74-749.54"/>
    <path style="fill:#c4c5db" d="m2099.9 2100.8c-163.85-242.96-493.65-307.08-736.61-143.23-242.96 163.86-307.09 493.66-143.23 736.62 163.85 242.96 493.65 307.09 736.61 143.23s307.09-493.66 143.23-736.62"/>
    <path style="fill:#c5c7db" d="m2092.2 2106c-160.99-238.7-485-301.7-723.7-140.72-238.69 160.99-301.7 485-140.71 723.69 160.98 238.7 484.99 301.71 723.69 140.72 238.69-160.98 301.7-484.99 140.72-723.69"/>
    <path style="fill:#c6c8dd" d="m2084.5 2111.2c-158.11-234.43-476.34-296.31-710.77-138.2-234.44 158.11-296.31 476.33-138.21 710.77 158.11 234.43 476.34 296.31 710.77 138.2 234.44-158.1 296.31-476.33 138.21-710.77"/>
    <path style="fill:#c6c8dd" d="m2076.8 2116.4c-155.23-230.17-467.68-290.93-697.85-135.69-230.17 155.23-290.92 467.67-135.69 697.84s467.68 290.93 697.85 135.69c230.1-155.2 290.9-467.6 135.7-697.8"/>
    <path style="fill:#c7c9dd" d="m2069 2121.6c-152.36-225.91-459.01-285.54-684.92-133.18s-285.54 459.02-133.18 684.93 459.01 285.54 684.92 133.18 285.54-459.02 133.18-684.93"/>
    <path style="fill:#c8cade" d="m2061.3 2126.8c-149.48-221.65-450.35-280.15-672-130.67-221.65 149.49-280.15 450.35-130.66 672 149.48 221.65 450.35 280.15 672 130.67s280.15-450.35 130.66-672"/>
    <path style="fill:#c9cbdf" d="m2053.6 2132c-146.61-217.38-441.7-274.76-659.08-128.15-217.39 146.61-274.77 441.69-128.16 659.08 146.61 217.38 441.7 274.76 659.08 128.15 217.39-146.61 274.77-441.69 128.16-659.08"/>
    <path style="fill:#caccdf" d="m2045.9 2137.2c-143.74-213.12-433.03-269.37-646.16-125.64-213.12 143.73-269.37 433.03-125.64 646.15 143.74 213.13 433.03 269.38 646.16 125.64 213.12-143.73 269.37-433.03 125.64-646.15"/>
    <path style="fill:#cbcddf" d="m2038.2 2142.4c-140.86-208.86-424.37-263.98-633.23-123.12-208.86 140.85-263.99 424.37-123.13 633.23s424.37 263.98 633.23 123.12c208.86-140.85 263.99-424.37 123.13-633.23"/>
    <path style="fill:#cccee0" d="m2030.5 2147.6c-137.98-204.6-415.71-258.6-620.31-120.62-204.6 137.99-258.6 415.71-120.61 620.31 137.98 204.6 415.71 258.6 620.31 120.62 204.6-137.99 258.6-415.71 120.61-620.31"/>
    <path style="fill:#cdcfe1" d="m2022.7 2152.8c-135.11-200.33-407.04-253.21-607.38-118.1s-253.22 407.05-118.1 607.39c135.11 200.33 407.04 253.21 607.38 118.1s253.22-407.05 118.1-607.39"/>
    <path style="fill:#cfd0e2" d="m2015 2158c-132.24-196.07-398.39-247.82-594.47-115.59-196.07 132.24-247.82 398.39-115.59 594.46 132.24 196.08 398.39 247.83 594.47 115.59 196.07-132.23 247.82-398.39 115.59-594.46"/>
    <path style="fill:#d0d1e2" d="m2007.3 2163.2c-129.36-191.81-389.73-242.43-581.54-113.07s-242.44 389.73-113.08 581.54 389.73 242.43 581.54 113.07 242.44-389.72 113.08-581.54"/>
    <path style="fill:#d1d2e3" d="m1999.6 2168.4c-126.49-187.55-381.07-237.05-568.62-110.56-187.54 126.48-237.05 381.07-110.56 568.61 126.49 187.55 381.07 237.05 568.62 110.56 187.54-126.48 237.05-381.06 110.56-568.61"/>
    <path style="fill:#d2d3e4" d="m1991.9 2173.6c-123.61-183.28-372.41-231.66-555.69-108.05-183.29 123.61-231.66 372.41-108.05 555.7 123.61 183.28 372.41 231.66 555.69 108.05 183.29-123.61 231.66-372.41 108.05-555.7"/>
    <path style="fill:#d3d4e4" d="m1984.2 2178.8c-120.73-179.02-363.74-226.28-542.77-105.54-179.02 120.74-226.27 363.75-105.53 542.77 120.73 179.03 363.74 226.28 542.77 105.54 179.02-120.74 226.27-363.74 105.53-542.77"/>
    <path style="fill:#d4d5e5" d="m1976.4 2184c-117.87-174.75-355.09-220.88-529.85-103.02s-220.89 355.09-103.03 529.85c117.87 174.76 355.09 220.88 529.85 103.02s220.89-355.08 103.03-529.85"/>
    <path style="fill:#d5d6e5" d="m1968.7 2189.3c-114.99-170.5-346.43-215.5-516.93-100.51-170.49 114.98-215.49 346.42-100.51 516.92 114.99 170.5 346.43 215.5 516.93 100.51 170.49-114.98 215.49-346.42 100.51-516.92"/>
    <path style="fill:#d6d6e6" d="m1961 2194.5c-112.11-166.23-337.77-210.11-504-98-166.23 112.12-210.11 337.77-98 504 112.11 166.24 337.77 210.12 504 98 166.23-112.11 210.11-337.76 98-504"/>
    <path style="fill:#d7d8e6" d="m1953.3 2199.7c-109.23-161.97-329.1-204.72-491.08-95.49-161.97 109.24-204.72 329.11-95.48 491.08 109.23 161.97 329.1 204.72 491.08 95.49 161.97-109.24 204.72-329.11 95.48-491.08"/>
    <path style="fill:#d8d9e7" d="m1945.6 2204.9c-106.36-157.72-320.44-199.34-478.15-92.98-157.71 106.37-199.34 320.44-92.97 478.15 106.36 157.72 320.44 199.34 478.15 92.98s199.34-320.44 92.97-478.15"/>
    <path style="fill:#d9dae7" d="m1937.8 2210.1c-103.49-153.45-311.79-193.95-465.24-90.46-153.44 103.49-193.95 311.78-90.46 465.23s311.79 193.95 465.24 90.46c153.44-103.49 193.95-311.78 90.46-465.23"/>
    <path style="fill:#dadae8" d="m1930.1 2215.3c-100.61-149.19-303.12-188.57-452.31-87.95-149.19 100.61-188.56 303.12-87.95 452.3 100.61 149.19 303.12 188.57 452.31 87.95 149.19-100.61 188.56-303.12 87.95-452.3"/>
    <path style="fill:#dbdbe9" d="m1922.4 2220.5c-97.74-144.92-294.46-183.17-439.38-85.44-144.93 97.74-183.18 294.47-85.44 439.39s294.46 183.17 439.38 85.44c144.93-97.74 183.18-294.47 85.44-439.39"/>
    <path style="fill:#ddddea" d="m1914.7 2225.7c-94.86-140.66-285.8-177.79-426.46-82.93-140.66 94.87-177.78 285.8-82.92 426.46 94.86 140.67 285.8 177.79 426.46 82.93s177.78-285.8 82.92-426.46"/>
    <path style="fill:#dddeea" d="m1907 2230.9c-91.99-136.4-277.13-172.4-413.53-80.41s-172.4 277.14-80.41 413.54 277.13 172.4 413.53 80.41 172.4-277.14 80.41-413.54"/>
    <path style="fill:#dfdfeb" d="m1899.3 2236.1c-89.12-132.14-268.48-167.01-400.62-77.9s-167.01 268.48-77.9 400.61c89.12 132.14 268.48 167.02 400.62 77.9 132.14-89.11 167.01-268.48 77.9-400.61"/>
    <path style="fill:#e0e0ec" d="m1891.5 2241.3c-86.24-127.87-259.82-161.62-387.69-75.38-127.88 86.24-161.63 259.82-75.39 387.69 86.24 127.88 259.82 161.63 387.69 75.38 127.88-86.23 161.63-259.81 75.39-387.69"/>
    <path style="fill:#e1e1ec" d="m1883.8 2246.5c-83.36-123.61-251.16-156.24-374.77-72.88-123.61 83.37-156.23 251.16-72.87 374.77s251.16 156.24 374.77 72.88c123.61-83.37 156.23-251.16 72.87-374.77"/>
    <path style="fill:#e2e2ec" d="m1876.1 2251.7c-80.49-119.34-242.49-150.84-361.84-70.36-119.35 80.49-150.85 242.5-70.36 361.85s242.49 150.85 361.84 70.36 150.85-242.5 70.36-361.85"/>
    <path style="fill:#e3e3ee" d="m1868.4 2256.9c-77.61-115.09-233.83-145.47-348.92-67.85-115.08 77.62-145.46 233.84-67.84 348.92 77.61 115.09 233.83 145.47 348.92 67.85s145.46-233.84 67.84-348.92"/>
    <path style="fill:#e4e4ee" d="m1860.7 2262.1c-74.74-110.82-225.18-140.07-336-65.33-110.83 74.74-140.08 225.18-65.34 336s225.18 140.07 336 65.33c110.83-74.74 140.08-225.17 65.34-336"/>
    <path style="fill:#e5e5ef" d="m1853 2267.3c-71.87-106.56-216.52-134.69-323.08-62.82-106.56 71.86-134.69 216.51-62.82 323.07 71.87 106.57 216.52 134.69 323.08 62.82 106.56-71.86 134.69-216.51 62.82-323.07"/>
    <path style="fill:#e6e6ef" d="m1845.2 2272.5c-68.99-102.29-207.85-129.3-310.15-60.31-102.3 69-129.3 207.86-60.31 310.16s207.86 129.3 310.15 60.31c102.3-69 129.3-207.86 60.31-310.16"/>
    <path style="fill:#e7e7f0" d="m1837.5 2277.8c-66.12-98.04-199.19-123.91-297.23-57.8-98.03 66.12-123.91 199.2-57.79 297.23 66.12 98.04 199.19 123.91 297.23 57.8 98.03-66.12 123.91-199.19 57.79-297.23"/>
    <path style="fill:#e8e8f1" d="m1829.8 2283c-63.25-93.77-190.54-118.52-284.31-55.28-93.78 63.24-118.53 190.54-55.28 284.31 63.24 93.77 190.53 118.52 284.3 55.28 93.78-63.24 118.53-190.53 55.29-284.31"/>
    <path style="fill:#e9e8f1" d="m1822.1 2288.2c-60.37-89.51-181.88-113.14-271.39-52.77s-113.14 181.87-52.77 271.38c60.37 89.52 181.88 113.14 271.39 52.77 89.51-60.36 113.14-181.87 52.77-271.38"/>
    <path style="fill:#eaeaf2" d="m1814.4 2293.4c-57.49-85.25-173.21-107.75-258.46-50.25-85.25 57.49-107.75 173.21-50.26 258.46s173.21 107.75 258.46 50.25c85.25-57.49 107.75-173.21 50.26-258.46"/>
    <path style="fill:#ebecf3" d="m1806.6 2298.6c-54.62-80.99-164.55-102.36-245.54-47.75-80.98 54.62-102.36 164.56-47.74 245.54 54.62 80.99 164.55 102.36 245.54 47.75 80.98-54.62 102.36-164.56 47.74-245.54"/>
    <path style="fill:#ededf4" d="m1798.9 2303.8c-51.74-76.72-155.89-96.97-232.61-45.23-76.73 51.75-96.98 155.89-45.23 232.62 51.74 76.72 155.89 96.97 232.61 45.23 76.73-51.75 96.98-155.89 45.23-232.62"/>
    <path style="fill:#ededf4" d="m1791.2 2309c-48.87-72.46-147.24-91.59-219.7-42.72s-91.58 147.23-42.72 219.69c48.87 72.46 147.24 91.59 219.7 42.72s91.58-147.23 42.72-219.69"/>
    <path style="fill:#efeff5" d="m1783.5 2314.2c-46-68.2-138.58-86.2-206.77-40.2-68.2 45.99-86.2 138.57-40.21 206.77 46 68.2 138.58 86.2 206.77 40.2 68.2-45.99 86.2-138.57 40.21-206.77"/>
    <path style="fill:#f0f0f6" d="m1775.8 2319.4c-43.12-63.94-129.91-80.81-193.85-37.69s-80.81 129.91-37.69 193.84c43.12 63.94 129.91 80.82 193.85 37.69 63.94-43.11 80.81-129.9 37.69-193.84"/>
    <path style="fill:#f1f1f6" d="m1768 2324.6c-40.24-59.67-121.25-75.42-180.92-35.18-59.67 40.25-75.42 121.25-35.18 180.93 40.24 59.67 121.25 75.42 180.92 35.18 59.67-40.25 75.42-121.25 35.18-180.93"/>
    <path style="fill:#f2f1f6" d="m1760.3 2329.8c-37.37-55.41-112.59-70.04-168-32.67s-70.03 112.59-32.66 168 112.59 70.04 168 32.67 70.03-112.59 32.66-168"/>
    <path style="fill:#f3f3f7" d="m1752.6 2335c-34.5-51.14-103.93-64.64-155.08-30.15-51.15 34.5-64.65 103.93-30.16 155.08 34.5 51.14 103.93 64.65 155.08 30.15 51.15-34.49 64.65-103.93 30.16-155.08"/>
    <path style="fill:#f4f4f8" d="m1744.9 2340.2c-31.62-46.89-95.27-59.26-142.16-27.64-46.88 31.62-59.26 95.27-27.64 142.15 31.62 46.89 95.27 59.26 142.16 27.64 46.88-31.62 59.26-95.27 27.64-142.15"/>
    <path style="fill:#f5f4f9" d="m1737.2 2345.4c-28.75-42.62-86.61-53.87-129.23-25.12-42.63 28.74-53.88 86.6-25.13 129.23 28.75 42.62 86.61 53.87 129.23 25.12 42.63-28.74 53.88-86.6 25.13-129.23"/>
    <path style="fill:#f6f6f9" d="m1729.5 2350.6c-25.87-38.36-77.94-48.49-116.31-22.62-38.36 25.88-48.48 77.95-22.61 116.31s77.94 48.49 116.31 22.62c38.36-25.87 48.48-77.95 22.61-116.31"/>
    <path style="fill:#f7f7fa" d="m1721.7 2355.8c-22.99-34.09-69.28-43.09-103.38-20.1-34.1 23-43.1 69.29-20.1 103.39 22.99 34.09 69.28 43.1 103.38 20.1s43.1-69.29 20.1-103.39"/>
    <path style="fill:#f9f9fc" d="m1714 2361c-20.12-29.83-60.63-37.71-90.47-17.59-29.83 20.12-37.71 60.63-17.59 90.46 20.12 29.84 60.63 37.71 90.47 17.59 29.83-20.12 37.71-60.62 17.59-90.46"/>
    <path style="fill:#faf9fc" d="m1706.3 2366.2c-17.25-25.57-51.97-32.32-77.54-15.07s-32.32 51.97-15.08 77.54c17.25 25.57 51.97 32.32 77.54 15.07 25.57-17.24 32.32-51.96 15.08-77.54"/>
    <path style="fill:#fbfbfc" d="m1698.6 2371.4c-14.37-21.31-43.3-26.94-64.62-12.56-21.31 14.37-26.93 43.3-12.56 64.61s43.3 26.94 64.62 12.56c21.31-14.37 26.93-43.3 12.56-64.61"/>
    <path style="fill:#fcfcfd" d="m1690.9 2376.6c-11.49-17.04-34.64-21.54-51.69-10.05-17.05 11.5-21.55 34.65-10.05 51.7s34.64 21.55 51.69 10.05 21.55-34.65 10.05-51.7"/>
    <path style="fill:#fdfdfe" d="m1683.2 2381.8c-8.62-12.78-25.98-16.16-38.77-7.54-12.78 8.62-16.16 25.99-7.53 38.77 8.62 12.79 25.98 16.16 38.77 7.54 12.78-8.62 16.16-25.98 7.53-38.77"/>
    <path style="fill:#fefefe" d="m1675.4 2387c-5.75-8.52-17.33-10.76-25.85-5.02-8.52 5.75-10.77 17.32-5.03 25.85 5.75 8.52 17.33 10.77 25.85 5.02 8.52-5.74 10.77-17.32 5.03-25.85"/>
    <path style="fill:#fff" d="m1667.7 2392.3c-2.88-4.26-8.67-5.38-12.93-2.51-4.25 2.87-5.38 8.66-2.51 12.92 2.88 4.26 8.67 5.39 12.93 2.51 4.25-2.87 5.38-8.66 2.51-12.92"/>
   </g>
   <path style="fill:#617cbe" d="m2764.8 107.99c1467.3 0 2656.8 602.81 2656.8 1346.4s-1189.5 1346.4-2656.8 1346.4-2656.8-602.8-2656.8-1346.4 1189.5-1346.4 2656.8-1346.4"/>
   <path style="fill:#fff" d="m3303 1019.2s131.8 678.24 131.8 678.25c29.73 153.09 5 267.29-73.51 339.43-76.02 69.82-205.1 103.76-394.61 103.76h-228.22l65.33 336.06c2.46 12.67-0.88 25.77-9.08 35.73-8.21 9.95-20.44 15.71-33.34 15.71h-315c-20.68 0-38.46-14.65-42.4-34.95l-140-720c-12.74 81.02-44.08 150.68-94.27 208.13-92.39 105.76-238.55 159.38-434.41 159.38h-610.55c-20.68 0-38.46-14.65-42.4-34.95l-283.31-1457.6c-2.461-12.664 0.867-25.762 9.074-35.711 8.203-9.953 20.43-15.722 33.336-15.722h317.5c20.67 0 38.45 14.656 42.4 34.949l68.52 352.55h236.33c124.05 0 228.21 13.437 309.57 39.93 83.19 27.04 159.73 72.91 227.21 136.07 54.51 50.1 99.57 106.18 134.24 166.68l-56.61-291.25c-2.46-12.66 0.87-25.76 9.08-35.708 8.21-9.953 20.43-15.722 33.33-15.722h315c20.68 0 38.47 14.656 42.41 34.95l155.47 800.05h216.14c92.11 0 119.07-18.35 126.39-26.23 6.67-7.2 20.52-32.55 5-112.45l-125.2-645c-2.46-12.66 0.87-25.76 9.08-35.708 8.21-9.953 20.43-15.722 33.33-15.722h320c20.68 0 38.46 14.656 42.41 34.95zm-1460.4 560.4c-19.78-101.67-57.07-174.2-110.82-215.59-54.62-42.05-141.98-63.38-259.67-63.38h-140.7l101.76 523.61h181.92c133.67 0 187.51-28.57 209.13-52.53 29.97-33.23 36.33-99.67 18.39-192.11"/>
   <path style="fill:#fff" d="m4650 1981.3c-92.39 105.76-238.55 159.38-434.4 159.38h-610.55c-20.69 0-38.46-14.65-42.41-34.95l-283.2-1457.6c-2.46-12.664 0.87-25.762 9.07-35.711 8.21-9.953 20.43-15.722 33.34-15.722h317.5c20.67 0 38.46 14.656 42.39 34.949l68.53 352.55h236.34c124.04 0 228.2 13.437 309.57 39.93 83.18 27.04 159.72 72.91 227.2 136.07 56.29 51.73 102.61 109.8 137.7 172.57 35.03 62.71 60.21 132.7 74.85 208.02 36.11 185.7 7.22 333.88-85.85 440.42zm-329.28-401.65c-19.79-101.67-57.07-174.2-110.82-215.59-54.62-42.05-141.99-63.38-259.66-63.38h-140.73l101.76 523.61h181.93c133.66 0 187.51-28.57 209.13-52.53 29.97-33.23 36.33-99.67 18.39-192.11"/>
   <path style="fill:#08090d" d="m1615.1 1867.5c120.63 0 201.02-22.26 241.21-66.79 40.16-44.53 49.73-120.98 28.71-229.29-21.95-112.82-64.21-193.33-126.87-241.58-62.66-48.24-158.01-72.34-286.02-72.34h-193.12l118.55 610zm-773.61-1227.5h317.5l75.31 387.5h271.95c120 0 218.71 12.58 296.21 37.83 77.5 25.18 147.93 67.46 211.33 126.79 53.21 48.9 96.25 102.84 129.22 161.84 32.93 58.93 56.33 124.01 70.16 195.19 33.59 172.77 8.24 307.34-75.98 403.75-84.22 96.4-218.2 144.6-401.87 144.6h-610.5l-283.31-1457.5"/>
   <path style="fill:#08090d" d="m2446.4 2485h315l-75.31-387.5h280.62c176.57 0 298.36-30.82 365.39-92.38 67.04-61.6 87.11-161.4 60.32-299.37l-131.8-678.25h-320l125.31 644.89c14.26 73.36 9.03 123.4-15.74 150.08-24.76 26.68-77.46 40.03-158.05 40.03h-251.75l-162.27-835h-315l283.28 1457.5"/>
   <path style="fill:#08090d" d="m4093.2 1867.5c120.62 0 201.01-22.26 241.21-66.79 40.16-44.53 49.73-120.98 28.71-229.29-21.95-112.82-64.21-193.33-126.87-241.58-62.66-48.24-158.01-72.34-286.01-72.34h-193.13l118.55 610zm-773.6-1227.5h317.5l75.31 387.5h271.95c120 0 218.71 12.58 296.21 37.83 77.5 25.18 147.93 67.46 211.33 126.79 53.2 48.9 96.25 102.84 129.22 161.84 32.93 58.93 56.33 124.01 70.15 195.19 33.6 172.77 8.25 307.34-75.97 403.75-84.22 96.4-218.19 144.6-401.88 144.6h-610.6l-283.3-1457.5"/>
  </g>
 </g>
</svg>
