<svg xmlns="http://www.w3.org/2000/svg" version="1.1" viewBox="0 0 512 512">
 <path style="stroke-width:.71536" d="m164.07 0.0075692c-2.5891 0.080349-5.3775 1.0368-8.5399 3.5321-7.75-2.9876-15.26-4.0254-21.98 2.0567-10.37-1.3455-13.74 1.4308-16.3 4.6726-2.27-0.048-17.04-2.3411-23.806 7.757-17.012-2.013-22.389 10.006-16.297 21.215-3.4744 5.3788-7.0745 10.692 1.0507 20.946-2.8743 5.7111-1.0926 11.906 5.6782 19.404-1.7869 8.0285 1.7255 13.693 8.0256 18.107-1.1783 10.986 10.075 17.374 13.435 19.65 1.2903 6.4015 3.9795 12.442 16.833 15.782 2.1198 9.54 9.8448 11.187 17.325 13.19-24.724 14.372-45.927 33.281-45.783 79.677l-3.6215 6.4605c-28.35 17.24-53.856 72.652-13.971 117.69 2.6053 14.098 6.9745 24.225 10.865 35.432 5.8186 45.161 43.793 66.308 53.808 68.809 14.677 11.18 30.308 21.788 51.461 29.218 19.941 20.566 41.544 28.404 63.265 28.391 0.31844-0.00021 0.64277 0.004 0.9613 0 21.721 0.0135 43.323-7.8246 63.265-28.391 21.152-7.4304 36.784-18.038 51.461-29.218 10.016-2.5008 47.99-23.648 53.808-68.809 3.89-11.208 8.2595-21.334 10.865-35.432 39.884-45.042 14.379-100.46-13.972-117.7l-3.6269-6.4597c0.14355-46.392-21.059-65.301-45.783-79.677 7.4805-2.0019 15.206-3.6493 17.325-13.19 12.854-3.3406 15.543-9.3812 16.833-15.782 3.3606-2.2758 14.613-8.6637 13.435-19.65 6.2999-4.4149 9.8126-10.079 8.0256-18.107 6.7708-7.4977 8.5528-13.693 5.6782-19.404 8.1265-10.25 4.5211-15.563 1.0516-20.942 6.1-11.21 0.72-23.229-16.3-21.216-6.76-10.098-21.52-7.805-23.8-7.757-2.56-3.2418-5.93-6.0181-16.3-4.6726-6.72-6.0821-14.23-5.0443-21.97-2.0567-9.2-7.2594-15.29-1.4402-22.24 0.76-11.14-3.6395-13.69 1.3456-19.16 3.3756-12.15-2.5667-15.84 3.0217-21.66 8.9197l-6.7736-0.13413c-18.33 10.797-27.43 32.782-30.66 44.084-3.22-11.304-12.3-33.289-30.62-44.084l-6.7736 0.13413c-5.83-5.898-9.53-11.486-21.67-8.9197-5.48-2.03-8.01-7.0151-19.16-3.3756-4.56-1.4439-8.76-4.4455-13.7-4.2921z"/>
 <path style="stroke-width:.71536;fill:#75a928" d="m127.59 47.507c48.607 25.06 76.865 45.332 92.346 62.597-7.9276 31.775-49.285 33.225-64.408 32.333 3.0964-1.4412 5.6799-3.1675 6.596-5.8199-3.7946-2.6968-17.249-0.28414-26.643-5.5613 3.6083-0.74755 5.2962-1.4758 6.984-4.1386-8.8747-2.8304-18.434-5.2696-24.056-9.9585 3.034 0.0375 5.8668 0.67873 9.829-2.0693-7.949-4.2837-16.431-7.6786-23.021-14.226 4.1099-0.1006 8.5407-0.0406 9.829-1.552-7.2752-4.5073-13.414-9.52-18.495-15.002 5.7515 0.69427 8.1801 0.09642 9.5708-0.90536-5.4995-5.6329-12.46-10.389-15.779-17.33 4.2704 1.4718 8.1773 2.0353 10.994-0.12934-1.8688-4.216-9.8755-6.7026-14.485-16.555 4.4956 0.43592 9.2639 0.98083 10.217 0-2.0867-8.5013-5.6671-13.281-9.1788-18.232 9.6216-0.14307 24.199 0.0372 23.539-0.77616l-5.9493-6.0786c9.3984-2.5304 19.015 0.40644 25.996 2.5867 3.1346-2.4735-0.0555-5.6013-3.88-8.7946 7.987 1.0663 15.204 2.9025 21.728 5.432 3.4855-3.1471-2.2633-6.2942-5.044-9.4413 12.339 2.3411 17.567 5.6304 22.763 8.9241 3.7695-3.6131 0.21579-6.6838-2.328-9.829 9.3039 3.4459 14.096 7.8947 19.142 12.286 1.7106-2.3085 4.3457-4.0006 1.164-9.5708 6.6058 3.8076 11.581 8.2946 15.261 13.321 4.0871-2.6024 2.435-6.1614 2.4573-9.4413 6.865 5.5844 11.222 11.527 16.555 17.33 1.0743-0.78217 2.0149-3.4349 2.8453-7.6307 16.378 15.89 39.521 55.911 5.9493 71.779-28.57-23.57-62.7-40.698-100.51-53.546z"/>
 <path style="stroke-width:.71536;fill:#75a928" d="m385.5 47.507c-48.601 25.062-76.858 45.328-92.338 62.597 7.9276 31.775 49.285 33.225 64.408 32.333-3.0964-1.4412-5.6799-3.1675-6.596-5.8199 3.7946-2.6968 17.249-0.28414 26.643-5.5613-3.6083-0.74755-5.2962-1.4758-6.984-4.1386 8.8747-2.8304 18.434-5.2696 24.056-9.9585-3.034 0.0375-5.8668 0.67873-9.829-2.0693 7.9491-4.2837 16.431-7.6786 23.021-14.226-4.1099-0.1006-8.5407-0.0406-9.829-1.552 7.2752-4.5073 13.414-9.52 18.495-15.002-5.7515 0.69427-8.1801 0.09642-9.5708-0.90536 5.4995-5.6329 12.46-10.389 15.779-17.33-4.2704 1.4718-8.1772 2.0353-10.994-0.12934 1.8688-4.216 9.8755-6.7026 14.485-16.555-4.4956 0.43592-9.2639 0.98083-10.217 0 2.0905-8.5049 5.671-13.284 9.1823-18.236-9.6216-0.14288-24.199 0.03749-23.539-0.77602l5.9493-6.0786c-9.3984-2.5304-19.015 0.40644-25.996 2.5867-3.1346-2.4735 0.0555-5.6012 3.88-8.7946-7.987 1.0663-15.204 2.9025-21.728 5.432-3.4855-3.1471 2.2633-6.2942 5.044-9.4413-12.339 2.3411-17.567 5.6304-22.763 8.9241-3.7695-3.6131-0.2158-6.6838 2.328-9.829-9.304 3.4459-14.096 7.8947-19.142 12.286-1.7106-2.3085-4.3457-4.0006-1.164-9.5708-6.6058 3.8076-11.581 8.2946-15.261 13.321-4.0871-2.6024-2.435-6.1614-2.4573-9.4413-6.865 5.5844-11.222 11.527-16.555 17.33-1.0742-0.78217-2.0149-3.4349-2.8453-7.6307-16.378 15.89-39.521 55.911-5.9493 71.779 28.556-23.569 62.677-40.695 100.49-53.544z"/>
 <path style="stroke-width:.80805;fill:#bc1142" d="m315.41 371.07a58.223 53.689 0 1 1 -116.44 0 58.223 53.689 0 1 1 116.44 0z"/>
 <path style="stroke-width:1.3597;fill:#bc1142" d="m223.5 217.7a52.22 61.614 34.034 1 1 -67.94 102.8 52.22 61.614 34.034 1 1 67.94 -102.8z"/>
 <path style="stroke-width:1.3597;fill:#bc1142" d="m288.61 214.84a61.614 52.22 55.966 1 0 67.94 102.8 61.614 52.22 55.966 1 0 -67.94 -102.8z"/>
 <path style="stroke-width:.71536;fill:#bc1142" d="m102.92 243.54c26.046-6.9819 8.7932 107.75-12.399 98.34-23.308-18.75-30.816-73.66 12.399-98.34z"/>
 <path style="stroke-width:.71536;fill:#bc1142" d="m403.92 242.11c-26.049-6.9797-8.7932 107.76 12.399 98.347 23.311-18.752 30.82-73.668-12.399-98.347z"/>
 <path style="stroke-width:.71536;fill:#bc1142" d="m315.43 156.67c44.95-7.5899 82.352 19.116 80.843 67.857-1.4786 18.686-97.403-65.075-80.843-67.857z"/>
 <path style="stroke-width:.71536;fill:#bc1142" d="m191.23 155.24c-44.953-7.59-82.352 19.122-80.843 67.859 1.4786 18.685 97.403-65.076 80.843-67.859z"/>
 <path style="stroke-width:.71536;fill:#bc1142" d="m255.8 143.87c-26.828-0.69781-52.575 19.911-52.637 31.865-0.0748 14.525 21.211 29.396 52.82 29.773 32.279 0.23121 52.876-11.904 52.98-26.893 0.11792-16.983-29.358-35.007-53.163-34.746z"/>
 <path style="stroke-width:.71536;fill:#bc1142" d="m257.44 441.72c23.39-1.0209 54.776 7.5341 54.837 18.883 0.38822 11.02-28.464 35.919-56.389 35.437-28.92 1.2475-57.278-23.69-56.907-32.333-0.43283-12.673 35.214-22.568 58.458-21.987z"/>
 <path style="stroke-width:.71536;fill:#bc1142" d="m171.05 374.46c16.653 20.063 24.244 55.311 10.347 65.701-13.148 7.9319-45.076 4.6653-67.77-27.936-15.305-27.357-13.333-55.195-2.5867-63.373 16.07-9.789 40.899 3.433 60.011 25.608z"/>
 <path style="stroke-width:.71536;fill:#bc1142" d="m340.5 368.1c-18.018 21.104-28.051 59.596-14.907 71.994 12.567 9.6316 46.304 8.2853 71.225-26.294 18.096-23.224 12.032-62.009 1.696-72.308-15.354-11.876-37.397 3.3228-58.015 26.603z"/>
</svg>
