<svg xmlns="http://www.w3.org/2000/svg" version="1.1" viewBox="0 0 512 512">
 <rect style="stroke-width:.81270;fill:#f7df1e" height="512" width="512" y="0" x="0"/>
 <path style="stroke-width:.81270" d="m343.93 400c10.313 16.839 23.731 29.217 47.462 29.217 19.935 0 32.67-9.9637 32.67-23.731 0-16.498-13.084-22.341-35.027-31.939l-12.028-5.1606c-34.718-14.791-57.783-33.321-57.783-72.493 0-36.084 27.494-63.553 70.461-63.553 30.59 0 52.582 10.646 68.429 38.522l-37.465 24.056c-8.2489-14.791-17.148-20.618-30.964-20.618-14.092 0-23.024 8.9397-23.024 20.618 0 14.434 8.9397 20.277 29.582 29.216l12.028 5.1525c40.879 17.53 63.959 35.401 63.959 75.581 0 43.317-34.028 67.048-79.726 67.048-44.682 0-73.549-21.293-87.674-49.201zm-169.96 4.1691c7.5581 13.41 14.434 24.747 30.964 24.747 15.807 0 25.779-6.1846 25.779-30.232v-163.59h48.112v164.25c0 49.818-29.208 72.493-71.843 72.493-38.522 0-60.83-19.935-72.176-43.947z"/>
</svg>
